<?xml version="1.0" encoding="utf-8" standalone="no"?>
<!DOCTYPE svg PUBLIC "-//W3C//DTD SVG 1.1//EN"
  "http://www.w3.org/Graphics/SVG/1.1/DTD/svg11.dtd">
<!-- Created with matplotlib (http://matplotlib.org/) -->
<svg height="432pt" version="1.1" viewBox="0 0 576 432" width="576pt" xmlns="http://www.w3.org/2000/svg" xmlns:xlink="http://www.w3.org/1999/xlink">
 <defs>
  <style type="text/css">
*{stroke-linecap:butt;stroke-linejoin:round;}
  </style>
 </defs>
 <g id="figure_1">
  <g id="patch_1">
   <path d="
M0 432
L576 432
L576 0
L0 0
z
" style="fill:#ffffff;"/>
  </g>
  <g id="axes_1">
   <g id="LineCollection_1">
    <defs>
     <path d="
M357.962 -277.393
L232.229 -184.511" id="C0_0_d374a89764"/>
     <path d="
M357.962 -277.393
L484.324 -370.286" id="C0_1_54b515af9a"/>
     <path d="
M232.229 -184.511
L137.522 -146.457" id="C0_2_316bea40c5"/>
     <path d="
M232.229 -184.511
L159.536 -119.457" id="C0_3_0264088069"/>
     <path d="
M232.229 -184.511
L127.348 -168.541" id="C0_4_7a1ab2e05a"/>
     <path d="
M232.229 -184.511
L232.229 -184.511" id="C0_5_8a63d22548"/>
     <path d="
M232.229 -184.511
L279.835 -163.399" id="C0_6_6387ad0336"/>
     <path d="
M232.229 -184.511
L203.995 -143.53" id="C0_7_b55cf323b8"/>
     <path d="
M159.536 -119.457
L96 -61.7143" id="C0_8_b49c7a5d1b"/>
     <path d="
M159.536 -119.457
L109.979 -104.609" id="C0_9_339e1b66ca"/>
     <path d="
M127.348 -168.541
L137.522 -146.457" id="C0_a_499ea63423"/>
     <path d="
M137.522 -146.457
L203.995 -143.53" id="C0_b_f3080eeee4"/>
     <path d="
M137.522 -146.457
L109.979 -104.609" id="C0_c_5936a1a981"/>
     <path d="
M279.835 -163.399
L279.835 -163.399" id="C0_d_d37b4163b0"/>
     <path d="
M279.835 -163.399
L203.995 -143.53" id="C0_e_afe9bfe2a4"/>
     <path d="
M203.995 -143.53
L203.995 -143.53" id="C0_f_811fbb43a3"/>
     <path d="
M203.995 -143.53
L109.979 -104.609" id="C0_10_3dce38fe96"/>
    </defs>
    <g clip-path="url(#p5a67343740)">
     <use style="fill:none;stroke:#000000;stroke-width:0.1;" x="0.0" xlink:href="#C0_0_d374a89764" y="432.0"/>
    </g>
    <g clip-path="url(#p5a67343740)">
     <use style="fill:none;stroke:#000000;stroke-width:0.1;" x="0.0" xlink:href="#C0_1_54b515af9a" y="432.0"/>
    </g>
    <g clip-path="url(#p5a67343740)">
     <use style="fill:none;stroke:#000000;stroke-width:0.1;" x="0.0" xlink:href="#C0_2_316bea40c5" y="432.0"/>
    </g>
    <g clip-path="url(#p5a67343740)">
     <use style="fill:none;stroke:#000000;stroke-width:0.1;" x="0.0" xlink:href="#C0_3_0264088069" y="432.0"/>
    </g>
    <g clip-path="url(#p5a67343740)">
     <use style="fill:none;stroke:#000000;stroke-width:0.1;" x="0.0" xlink:href="#C0_4_7a1ab2e05a" y="432.0"/>
    </g>
    <g clip-path="url(#p5a67343740)">
     <use style="fill:none;stroke:#000000;stroke-width:0.1;" x="0.0" xlink:href="#C0_5_8a63d22548" y="432.0"/>
    </g>
    <g clip-path="url(#p5a67343740)">
     <use style="fill:none;stroke:#000000;stroke-width:0.1;" x="0.0" xlink:href="#C0_6_6387ad0336" y="432.0"/>
    </g>
    <g clip-path="url(#p5a67343740)">
     <use style="fill:none;stroke:#000000;stroke-width:0.1;" x="0.0" xlink:href="#C0_7_b55cf323b8" y="432.0"/>
    </g>
    <g clip-path="url(#p5a67343740)">
     <use style="fill:none;stroke:#000000;stroke-width:0.1;" x="0.0" xlink:href="#C0_8_b49c7a5d1b" y="432.0"/>
    </g>
    <g clip-path="url(#p5a67343740)">
     <use style="fill:none;stroke:#000000;stroke-width:0.1;" x="0.0" xlink:href="#C0_9_339e1b66ca" y="432.0"/>
    </g>
    <g clip-path="url(#p5a67343740)">
     <use style="fill:none;stroke:#000000;stroke-width:0.1;" x="0.0" xlink:href="#C0_a_499ea63423" y="432.0"/>
    </g>
    <g clip-path="url(#p5a67343740)">
     <use style="fill:none;stroke:#000000;stroke-width:0.1;" x="0.0" xlink:href="#C0_b_f3080eeee4" y="432.0"/>
    </g>
    <g clip-path="url(#p5a67343740)">
     <use style="fill:none;stroke:#000000;stroke-width:0.1;" x="0.0" xlink:href="#C0_c_5936a1a981" y="432.0"/>
    </g>
    <g clip-path="url(#p5a67343740)">
     <use style="fill:none;stroke:#000000;stroke-width:0.1;" x="0.0" xlink:href="#C0_d_d37b4163b0" y="432.0"/>
    </g>
    <g clip-path="url(#p5a67343740)">
     <use style="fill:none;stroke:#000000;stroke-width:0.1;" x="0.0" xlink:href="#C0_e_afe9bfe2a4" y="432.0"/>
    </g>
    <g clip-path="url(#p5a67343740)">
     <use style="fill:none;stroke:#000000;stroke-width:0.1;" x="0.0" xlink:href="#C0_f_811fbb43a3" y="432.0"/>
    </g>
    <g clip-path="url(#p5a67343740)">
     <use style="fill:none;stroke:#000000;stroke-width:0.1;" x="0.0" xlink:href="#C0_10_3dce38fe96" y="432.0"/>
    </g>
   </g>
   <g id="PathCollection_1">
    <defs>
     <path d="
M0 2.73861
C0.726289 2.73861 1.42293 2.45006 1.93649 1.93649
C2.45006 1.42293 2.73861 0.726289 2.73861 0
C2.73861 -0.726289 2.45006 -1.42293 1.93649 -1.93649
C1.42293 -2.45006 0.726289 -2.73861 0 -2.73861
C-0.726289 -2.73861 -1.42293 -2.45006 -1.93649 -1.93649
C-2.45006 -1.42293 -2.73861 -0.726289 -2.73861 0
C-2.73861 0.726289 -2.45006 1.42293 -1.93649 1.93649
C-1.42293 2.45006 -0.726289 2.73861 0 2.73861
z
" id="C1_0_976255c095"/>
     <path d="
M0 5.12348
C1.35876 5.12348 2.66205 4.58363 3.62284 3.62284
C4.58363 2.66205 5.12348 1.35876 5.12348 0
C5.12348 -1.35876 4.58363 -2.66205 3.62284 -3.62284
C2.66205 -4.58363 1.35876 -5.12348 0 -5.12348
C-1.35876 -5.12348 -2.66205 -4.58363 -3.62284 -3.62284
C-4.58363 -2.66205 -5.12348 -1.35876 -5.12348 0
C-5.12348 1.35876 -4.58363 2.66205 -3.62284 3.62284
C-2.66205 4.58363 -1.35876 5.12348 0 5.12348
z
" id="C1_1_e49eed0488"/>
     <path d="
M0 3.3541
C0.889518 3.3541 1.74272 3.00069 2.37171 2.37171
C3.00069 1.74272 3.3541 0.889518 3.3541 0
C3.3541 -0.889518 3.00069 -1.74272 2.37171 -2.37171
C1.74272 -3.00069 0.889518 -3.3541 0 -3.3541
C-0.889518 -3.3541 -1.74272 -3.00069 -2.37171 -2.37171
C-3.00069 -1.74272 -3.3541 -0.889518 -3.3541 0
C-3.3541 0.889518 -3.00069 1.74272 -2.37171 2.37171
C-1.74272 3.00069 -0.889518 3.3541 0 3.3541
z
" id="C1_2_bfe955e8a6"/>
     <path d="
M0 2.73861
C0.726289 2.73861 1.42293 2.45006 1.93649 1.93649
C2.45006 1.42293 2.73861 0.726289 2.73861 0
C2.73861 -0.726289 2.45006 -1.42293 1.93649 -1.93649
C1.42293 -2.45006 0.726289 -2.73861 0 -2.73861
C-0.726289 -2.73861 -1.42293 -2.45006 -1.93649 -1.93649
C-2.45006 -1.42293 -2.73861 -0.726289 -2.73861 0
C-2.73861 0.726289 -2.45006 1.42293 -1.93649 1.93649
C-1.42293 2.45006 -0.726289 2.73861 0 2.73861
z
" id="C1_3_976255c095"/>
     <path d="
M0 1.93649
C0.513564 1.93649 1.00616 1.73245 1.36931 1.36931
C1.73245 1.00616 1.93649 0.513564 1.93649 0
C1.93649 -0.513564 1.73245 -1.00616 1.36931 -1.36931
C1.00616 -1.73245 0.513564 -1.93649 0 -1.93649
C-0.513564 -1.93649 -1.00616 -1.73245 -1.36931 -1.36931
C-1.73245 -1.00616 -1.93649 -0.513564 -1.93649 0
C-1.93649 0.513564 -1.73245 1.00616 -1.36931 1.36931
C-1.00616 1.73245 -0.513564 1.93649 0 1.93649
z
" id="C1_4_43e184535d"/>
     <path d="
M0 3.87298
C1.02713 3.87298 2.01232 3.4649 2.73861 2.73861
C3.4649 2.01232 3.87298 1.02713 3.87298 0
C3.87298 -1.02713 3.4649 -2.01232 2.73861 -2.73861
C2.01232 -3.4649 1.02713 -3.87298 0 -3.87298
C-1.02713 -3.87298 -2.01232 -3.4649 -2.73861 -2.73861
C-3.4649 -2.01232 -3.87298 -1.02713 -3.87298 0
C-3.87298 1.02713 -3.4649 2.01232 -2.73861 2.73861
C-2.01232 3.4649 -1.02713 3.87298 0 3.87298
z
" id="C1_5_5009dfc2f8"/>
     <path d="
M0 3.3541
C0.889518 3.3541 1.74272 3.00069 2.37171 2.37171
C3.00069 1.74272 3.3541 0.889518 3.3541 0
C3.3541 -0.889518 3.00069 -1.74272 2.37171 -2.37171
C1.74272 -3.00069 0.889518 -3.3541 0 -3.3541
C-0.889518 -3.3541 -1.74272 -3.00069 -2.37171 -2.37171
C-3.00069 -1.74272 -3.3541 -0.889518 -3.3541 0
C-3.3541 0.889518 -3.00069 1.74272 -2.37171 2.37171
C-1.74272 3.00069 -0.889518 3.3541 0 3.3541
z
" id="C1_6_bfe955e8a6"/>
     <path d="
M0 1.93649
C0.513564 1.93649 1.00616 1.73245 1.36931 1.36931
C1.73245 1.00616 1.93649 0.513564 1.93649 0
C1.93649 -0.513564 1.73245 -1.00616 1.36931 -1.36931
C1.00616 -1.73245 0.513564 -1.93649 0 -1.93649
C-0.513564 -1.93649 -1.00616 -1.73245 -1.36931 -1.36931
C-1.73245 -1.00616 -1.93649 -0.513564 -1.93649 0
C-1.93649 0.513564 -1.73245 1.00616 -1.36931 1.36931
C-1.00616 1.73245 -0.513564 1.93649 0 1.93649
z
" id="C1_7_43e184535d"/>
     <path d="
M0 4.33013
C1.14836 4.33013 2.24985 3.87388 3.06186 3.06186
C3.87388 2.24985 4.33013 1.14836 4.33013 0
C4.33013 -1.14836 3.87388 -2.24985 3.06186 -3.06186
C2.24985 -3.87388 1.14836 -4.33013 0 -4.33013
C-1.14836 -4.33013 -2.24985 -3.87388 -3.06186 -3.06186
C-3.87388 -2.24985 -4.33013 -1.14836 -4.33013 0
C-4.33013 1.14836 -3.87388 2.24985 -3.06186 3.06186
C-2.24985 3.87388 -1.14836 4.33013 0 4.33013
z
" id="C1_8_c1029985b4"/>
     <path d="
M0 3.3541
C0.889518 3.3541 1.74272 3.00069 2.37171 2.37171
C3.00069 1.74272 3.3541 0.889518 3.3541 0
C3.3541 -0.889518 3.00069 -1.74272 2.37171 -2.37171
C1.74272 -3.00069 0.889518 -3.3541 0 -3.3541
C-0.889518 -3.3541 -1.74272 -3.00069 -2.37171 -2.37171
C-3.00069 -1.74272 -3.3541 -0.889518 -3.3541 0
C-3.3541 0.889518 -3.00069 1.74272 -2.37171 2.37171
C-1.74272 3.00069 -0.889518 3.3541 0 3.3541
z
" id="C1_9_bfe955e8a6"/>
    </defs>
    <g clip-path="url(#p5a67343740)">
     <use style="fill:#f0a3ff;stroke:#000000;" x="357.96249842" xlink:href="#C1_0_976255c095" y="154.606735867"/>
    </g>
    <g clip-path="url(#p5a67343740)">
     <use style="fill:#0075dc;stroke:#000000;" x="232.229205418" xlink:href="#C1_1_e49eed0488" y="247.488563901"/>
    </g>
    <g clip-path="url(#p5a67343740)">
     <use style="fill:#0075dc;stroke:#000000;" x="159.536471269" xlink:href="#C1_2_bfe955e8a6" y="312.543104184"/>
    </g>
    <g clip-path="url(#p5a67343740)">
     <use style="fill:#0075dc;stroke:#000000;" x="127.347774437" xlink:href="#C1_3_976255c095" y="263.459457631"/>
    </g>
    <g clip-path="url(#p5a67343740)">
     <use style="fill:#0075dc;stroke:#000000;" x="484.323718378" xlink:href="#C1_4_43e184535d" y="61.7142857143"/>
    </g>
    <g clip-path="url(#p5a67343740)">
     <use style="fill:#0075dc;stroke:#000000;" x="137.5222575" xlink:href="#C1_5_5009dfc2f8" y="285.542876548"/>
    </g>
    <g clip-path="url(#p5a67343740)">
     <use style="fill:#0075dc;stroke:#000000;" x="279.834900884" xlink:href="#C1_6_bfe955e8a6" y="268.601440895"/>
    </g>
    <g clip-path="url(#p5a67343740)">
     <use style="fill:#f0a3ff;stroke:#000000;" x="96.0" xlink:href="#C1_7_43e184535d" y="370.285714286"/>
    </g>
    <g clip-path="url(#p5a67343740)">
     <use style="fill:#ffffff;stroke:#000000;" x="203.995483276" xlink:href="#C1_8_c1029985b4" y="288.470214138"/>
    </g>
    <g clip-path="url(#p5a67343740)">
     <use style="fill:#ffffff;stroke:#000000;" x="109.97920642" xlink:href="#C1_9_bfe955e8a6" y="327.391173749"/>
    </g>
   </g>
   <g id="text_1">
    <g clip-path="url(#p5a67343740)">
     <!-- ROOT 209.124.177. -->
     <defs>
      <path d="
M19.1875 8.29688
L53.6094 8.29688
L53.6094 0
L7.32812 0
L7.32812 8.29688
Q12.9375 14.1094 22.625 23.8906
Q32.3281 33.6875 34.8125 36.5312
Q39.5469 41.8438 41.4219 45.5312
Q43.3125 49.2188 43.3125 52.7812
Q43.3125 58.5938 39.2344 62.25
Q35.1562 65.9219 28.6094 65.9219
Q23.9688 65.9219 18.8125 64.3125
Q13.6719 62.7031 7.8125 59.4219
L7.8125 69.3906
Q13.7656 71.7812 18.9375 73
Q24.125 74.2188 28.4219 74.2188
Q39.75 74.2188 46.4844 68.5469
Q53.2188 62.8906 53.2188 53.4219
Q53.2188 48.9219 51.5312 44.8906
Q49.8594 40.875 45.4062 35.4062
Q44.1875 33.9844 37.6406 27.2188
Q31.1094 20.4531 19.1875 8.29688" id="BitstreamVeraSans-Roman-32"/>
      <path d="
M39.4062 66.2188
Q28.6562 66.2188 22.3281 58.2031
Q16.0156 50.2031 16.0156 36.375
Q16.0156 22.6094 22.3281 14.5938
Q28.6562 6.59375 39.4062 6.59375
Q50.1406 6.59375 56.4219 14.5938
Q62.7031 22.6094 62.7031 36.375
Q62.7031 50.2031 56.4219 58.2031
Q50.1406 66.2188 39.4062 66.2188
M39.4062 74.2188
Q54.7344 74.2188 63.9062 63.9375
Q73.0938 53.6562 73.0938 36.375
Q73.0938 19.1406 63.9062 8.85938
Q54.7344 -1.42188 39.4062 -1.42188
Q24.0312 -1.42188 14.8125 8.82812
Q5.60938 19.0938 5.60938 36.375
Q5.60938 53.6562 14.8125 63.9375
Q24.0312 74.2188 39.4062 74.2188" id="BitstreamVeraSans-Roman-4f"/>
      <path d="
M31.7812 66.4062
Q24.1719 66.4062 20.3281 58.9062
Q16.5 51.4219 16.5 36.375
Q16.5 21.3906 20.3281 13.8906
Q24.1719 6.39062 31.7812 6.39062
Q39.4531 6.39062 43.2812 13.8906
Q47.125 21.3906 47.125 36.375
Q47.125 51.4219 43.2812 58.9062
Q39.4531 66.4062 31.7812 66.4062
M31.7812 74.2188
Q44.0469 74.2188 50.5156 64.5156
Q56.9844 54.8281 56.9844 36.375
Q56.9844 17.9688 50.5156 8.26562
Q44.0469 -1.42188 31.7812 -1.42188
Q19.5312 -1.42188 13.0625 8.26562
Q6.59375 17.9688 6.59375 36.375
Q6.59375 54.8281 13.0625 64.5156
Q19.5312 74.2188 31.7812 74.2188" id="BitstreamVeraSans-Roman-30"/>
      <path d="
M12.4062 8.29688
L28.5156 8.29688
L28.5156 63.9219
L10.9844 60.4062
L10.9844 69.3906
L28.4219 72.9062
L38.2812 72.9062
L38.2812 8.29688
L54.3906 8.29688
L54.3906 0
L12.4062 0
z
" id="BitstreamVeraSans-Roman-31"/>
      <path d="
M8.20312 72.9062
L55.0781 72.9062
L55.0781 68.7031
L28.6094 0
L18.3125 0
L43.2188 64.5938
L8.20312 64.5938
z
" id="BitstreamVeraSans-Roman-37"/>
      <path d="
M37.7969 64.3125
L12.8906 25.3906
L37.7969 25.3906
z

M35.2031 72.9062
L47.6094 72.9062
L47.6094 25.3906
L58.0156 25.3906
L58.0156 17.1875
L47.6094 17.1875
L47.6094 0
L37.7969 0
L37.7969 17.1875
L4.89062 17.1875
L4.89062 26.7031
z
" id="BitstreamVeraSans-Roman-34"/>
      <path id="BitstreamVeraSans-Roman-20"/>
      <path d="
M10.9844 1.51562
L10.9844 10.5
Q14.7031 8.73438 18.5 7.8125
Q22.3125 6.89062 25.9844 6.89062
Q35.75 6.89062 40.8906 13.4531
Q46.0469 20.0156 46.7812 33.4062
Q43.9531 29.2031 39.5938 26.9531
Q35.25 24.7031 29.9844 24.7031
Q19.0469 24.7031 12.6719 31.3125
Q6.29688 37.9375 6.29688 49.4219
Q6.29688 60.6406 12.9375 67.4219
Q19.5781 74.2188 30.6094 74.2188
Q43.2656 74.2188 49.9219 64.5156
Q56.5938 54.8281 56.5938 36.375
Q56.5938 19.1406 48.4062 8.85938
Q40.2344 -1.42188 26.4219 -1.42188
Q22.7031 -1.42188 18.8906 -0.6875
Q15.0938 0.046875 10.9844 1.51562
M30.6094 32.4219
Q37.25 32.4219 41.125 36.9531
Q45.0156 41.5 45.0156 49.4219
Q45.0156 57.2812 41.125 61.8438
Q37.25 66.4062 30.6094 66.4062
Q23.9688 66.4062 20.0938 61.8438
Q16.2188 57.2812 16.2188 49.4219
Q16.2188 41.5 20.0938 36.9531
Q23.9688 32.4219 30.6094 32.4219" id="BitstreamVeraSans-Roman-39"/>
      <path d="
M44.3906 34.1875
Q47.5625 33.1094 50.5625 29.5938
Q53.5625 26.0781 56.5938 19.9219
L66.6094 0
L56 0
L46.6875 18.7031
Q43.0625 26.0312 39.6719 28.4219
Q36.2812 30.8125 30.4219 30.8125
L19.6719 30.8125
L19.6719 0
L9.8125 0
L9.8125 72.9062
L32.0781 72.9062
Q44.5781 72.9062 50.7344 67.6719
Q56.8906 62.4531 56.8906 51.9062
Q56.8906 45.0156 53.6875 40.4688
Q50.4844 35.9375 44.3906 34.1875
M19.6719 64.7969
L19.6719 38.9219
L32.0781 38.9219
Q39.2031 38.9219 42.8438 42.2188
Q46.4844 45.5156 46.4844 51.9062
Q46.4844 58.2969 42.8438 61.5469
Q39.2031 64.7969 32.0781 64.7969
z
" id="BitstreamVeraSans-Roman-52"/>
      <path d="
M-0.296875 72.9062
L61.375 72.9062
L61.375 64.5938
L35.5 64.5938
L35.5 0
L25.5938 0
L25.5938 64.5938
L-0.296875 64.5938
z
" id="BitstreamVeraSans-Roman-54"/>
      <path d="
M10.6875 12.4062
L21 12.4062
L21 0
L10.6875 0
z
" id="BitstreamVeraSans-Roman-2e"/>
     </defs>
     <g transform="translate(207.804986668 248.868251401)scale(0.05 -0.05)">
      <use xlink:href="#BitstreamVeraSans-Roman-52"/>
      <use x="69.482421875" xlink:href="#BitstreamVeraSans-Roman-4f"/>
      <use x="148.193359375" xlink:href="#BitstreamVeraSans-Roman-4f"/>
      <use x="226.904296875" xlink:href="#BitstreamVeraSans-Roman-54"/>
      <use x="287.98828125" xlink:href="#BitstreamVeraSans-Roman-20"/>
      <use x="319.775390625" xlink:href="#BitstreamVeraSans-Roman-32"/>
      <use x="383.3984375" xlink:href="#BitstreamVeraSans-Roman-30"/>
      <use x="447.021484375" xlink:href="#BitstreamVeraSans-Roman-39"/>
      <use x="510.64453125" xlink:href="#BitstreamVeraSans-Roman-2e"/>
      <use x="542.431640625" xlink:href="#BitstreamVeraSans-Roman-31"/>
      <use x="606.0546875" xlink:href="#BitstreamVeraSans-Roman-32"/>
      <use x="669.677734375" xlink:href="#BitstreamVeraSans-Roman-34"/>
      <use x="733.30078125" xlink:href="#BitstreamVeraSans-Roman-2e"/>
      <use x="765.087890625" xlink:href="#BitstreamVeraSans-Roman-31"/>
      <use x="828.7109375" xlink:href="#BitstreamVeraSans-Roman-37"/>
      <use x="892.333984375" xlink:href="#BitstreamVeraSans-Roman-37"/>
      <use x="955.95703125" xlink:href="#BitstreamVeraSans-Roman-2e"/>
     </g>
    </g>
   </g>
   <g id="text_2">
    <g clip-path="url(#p5a67343740)">
     <!-- 209.124.190 -->
     <g transform="translate(143.981002519 313.922791684)scale(0.05 -0.05)">
      <use xlink:href="#BitstreamVeraSans-Roman-32"/>
      <use x="63.623046875" xlink:href="#BitstreamVeraSans-Roman-30"/>
      <use x="127.24609375" xlink:href="#BitstreamVeraSans-Roman-39"/>
      <use x="190.869140625" xlink:href="#BitstreamVeraSans-Roman-2e"/>
      <use x="222.65625" xlink:href="#BitstreamVeraSans-Roman-31"/>
      <use x="286.279296875" xlink:href="#BitstreamVeraSans-Roman-32"/>
      <use x="349.90234375" xlink:href="#BitstreamVeraSans-Roman-34"/>
      <use x="413.525390625" xlink:href="#BitstreamVeraSans-Roman-2e"/>
      <use x="445.3125" xlink:href="#BitstreamVeraSans-Roman-31"/>
      <use x="508.935546875" xlink:href="#BitstreamVeraSans-Roman-39"/>
      <use x="572.55859375" xlink:href="#BitstreamVeraSans-Roman-30"/>
     </g>
    </g>
   </g>
   <g id="text_3">
    <g clip-path="url(#p5a67343740)">
     <!-- 209.124.178 -->
     <defs>
      <path d="
M31.7812 34.625
Q24.75 34.625 20.7188 30.8594
Q16.7031 27.0938 16.7031 20.5156
Q16.7031 13.9219 20.7188 10.1562
Q24.75 6.39062 31.7812 6.39062
Q38.8125 6.39062 42.8594 10.1719
Q46.9219 13.9688 46.9219 20.5156
Q46.9219 27.0938 42.8906 30.8594
Q38.875 34.625 31.7812 34.625
M21.9219 38.8125
Q15.5781 40.375 12.0312 44.7188
Q8.5 49.0781 8.5 55.3281
Q8.5 64.0625 14.7188 69.1406
Q20.9531 74.2188 31.7812 74.2188
Q42.6719 74.2188 48.875 69.1406
Q55.0781 64.0625 55.0781 55.3281
Q55.0781 49.0781 51.5312 44.7188
Q48 40.375 41.7031 38.8125
Q48.8281 37.1562 52.7969 32.3125
Q56.7812 27.4844 56.7812 20.5156
Q56.7812 9.90625 50.3125 4.23438
Q43.8438 -1.42188 31.7812 -1.42188
Q19.7344 -1.42188 13.25 4.23438
Q6.78125 9.90625 6.78125 20.5156
Q6.78125 27.4844 10.7812 32.3125
Q14.7969 37.1562 21.9219 38.8125
M18.3125 54.3906
Q18.3125 48.7344 21.8438 45.5625
Q25.3906 42.3906 31.7812 42.3906
Q38.1406 42.3906 41.7188 45.5625
Q45.3125 48.7344 45.3125 54.3906
Q45.3125 60.0625 41.7188 63.2344
Q38.1406 66.4062 31.7812 66.4062
Q25.3906 66.4062 21.8438 63.2344
Q18.3125 60.0625 18.3125 54.3906" id="BitstreamVeraSans-Roman-38"/>
     </defs>
     <g transform="translate(342.412107795 155.986423367)scale(0.05 -0.05)">
      <use xlink:href="#BitstreamVeraSans-Roman-32"/>
      <use x="63.623046875" xlink:href="#BitstreamVeraSans-Roman-30"/>
      <use x="127.24609375" xlink:href="#BitstreamVeraSans-Roman-39"/>
      <use x="190.869140625" xlink:href="#BitstreamVeraSans-Roman-2e"/>
      <use x="222.65625" xlink:href="#BitstreamVeraSans-Roman-31"/>
      <use x="286.279296875" xlink:href="#BitstreamVeraSans-Roman-32"/>
      <use x="349.90234375" xlink:href="#BitstreamVeraSans-Roman-34"/>
      <use x="413.525390625" xlink:href="#BitstreamVeraSans-Roman-2e"/>
      <use x="445.3125" xlink:href="#BitstreamVeraSans-Roman-31"/>
      <use x="508.935546875" xlink:href="#BitstreamVeraSans-Roman-37"/>
      <use x="572.55859375" xlink:href="#BitstreamVeraSans-Roman-38"/>
     </g>
    </g>
   </g>
   <g id="text_4">
    <g clip-path="url(#p5a67343740)">
     <!-- 209.124.190 -->
     <g transform="translate(468.768249628 63.0939732143)scale(0.05 -0.05)">
      <use xlink:href="#BitstreamVeraSans-Roman-32"/>
      <use x="63.623046875" xlink:href="#BitstreamVeraSans-Roman-30"/>
      <use x="127.24609375" xlink:href="#BitstreamVeraSans-Roman-39"/>
      <use x="190.869140625" xlink:href="#BitstreamVeraSans-Roman-2e"/>
      <use x="222.65625" xlink:href="#BitstreamVeraSans-Roman-31"/>
      <use x="286.279296875" xlink:href="#BitstreamVeraSans-Roman-32"/>
      <use x="349.90234375" xlink:href="#BitstreamVeraSans-Roman-34"/>
      <use x="413.525390625" xlink:href="#BitstreamVeraSans-Roman-2e"/>
      <use x="445.3125" xlink:href="#BitstreamVeraSans-Roman-31"/>
      <use x="508.935546875" xlink:href="#BitstreamVeraSans-Roman-39"/>
      <use x="572.55859375" xlink:href="#BitstreamVeraSans-Roman-30"/>
     </g>
    </g>
   </g>
   <g id="text_5">
    <g clip-path="url(#p5a67343740)">
     <!-- 209.124.190 -->
     <g transform="translate(121.96678875 286.922564048)scale(0.05 -0.05)">
      <use xlink:href="#BitstreamVeraSans-Roman-32"/>
      <use x="63.623046875" xlink:href="#BitstreamVeraSans-Roman-30"/>
      <use x="127.24609375" xlink:href="#BitstreamVeraSans-Roman-39"/>
      <use x="190.869140625" xlink:href="#BitstreamVeraSans-Roman-2e"/>
      <use x="222.65625" xlink:href="#BitstreamVeraSans-Roman-31"/>
      <use x="286.279296875" xlink:href="#BitstreamVeraSans-Roman-32"/>
      <use x="349.90234375" xlink:href="#BitstreamVeraSans-Roman-34"/>
      <use x="413.525390625" xlink:href="#BitstreamVeraSans-Roman-2e"/>
      <use x="445.3125" xlink:href="#BitstreamVeraSans-Roman-31"/>
      <use x="508.935546875" xlink:href="#BitstreamVeraSans-Roman-39"/>
      <use x="572.55859375" xlink:href="#BitstreamVeraSans-Roman-30"/>
     </g>
    </g>
   </g>
   <g id="text_6">
    <g clip-path="url(#p5a67343740)">
     <!-- 209.124.190 -->
     <g transform="translate(264.279432134 269.981128395)scale(0.05 -0.05)">
      <use xlink:href="#BitstreamVeraSans-Roman-32"/>
      <use x="63.623046875" xlink:href="#BitstreamVeraSans-Roman-30"/>
      <use x="127.24609375" xlink:href="#BitstreamVeraSans-Roman-39"/>
      <use x="190.869140625" xlink:href="#BitstreamVeraSans-Roman-2e"/>
      <use x="222.65625" xlink:href="#BitstreamVeraSans-Roman-31"/>
      <use x="286.279296875" xlink:href="#BitstreamVeraSans-Roman-32"/>
      <use x="349.90234375" xlink:href="#BitstreamVeraSans-Roman-34"/>
      <use x="413.525390625" xlink:href="#BitstreamVeraSans-Roman-2e"/>
      <use x="445.3125" xlink:href="#BitstreamVeraSans-Roman-31"/>
      <use x="508.935546875" xlink:href="#BitstreamVeraSans-Roman-39"/>
      <use x="572.55859375" xlink:href="#BitstreamVeraSans-Roman-30"/>
     </g>
    </g>
   </g>
   <g id="text_7">
    <g clip-path="url(#p5a67343740)">
     <!-- 209.124.177 -->
     <g transform="translate(80.4921875 371.665401786)scale(0.05 -0.05)">
      <use xlink:href="#BitstreamVeraSans-Roman-32"/>
      <use x="63.623046875" xlink:href="#BitstreamVeraSans-Roman-30"/>
      <use x="127.24609375" xlink:href="#BitstreamVeraSans-Roman-39"/>
      <use x="190.869140625" xlink:href="#BitstreamVeraSans-Roman-2e"/>
      <use x="222.65625" xlink:href="#BitstreamVeraSans-Roman-31"/>
      <use x="286.279296875" xlink:href="#BitstreamVeraSans-Roman-32"/>
      <use x="349.90234375" xlink:href="#BitstreamVeraSans-Roman-34"/>
      <use x="413.525390625" xlink:href="#BitstreamVeraSans-Roman-2e"/>
      <use x="445.3125" xlink:href="#BitstreamVeraSans-Roman-31"/>
      <use x="508.935546875" xlink:href="#BitstreamVeraSans-Roman-37"/>
      <use x="572.55859375" xlink:href="#BitstreamVeraSans-Roman-37"/>
     </g>
    </g>
   </g>
   <g id="text_8">
    <g clip-path="url(#p5a67343740)">
     <!-- 209.124.190 -->
     <g transform="translate(111.792305687 264.839145131)scale(0.05 -0.05)">
      <use xlink:href="#BitstreamVeraSans-Roman-32"/>
      <use x="63.623046875" xlink:href="#BitstreamVeraSans-Roman-30"/>
      <use x="127.24609375" xlink:href="#BitstreamVeraSans-Roman-39"/>
      <use x="190.869140625" xlink:href="#BitstreamVeraSans-Roman-2e"/>
      <use x="222.65625" xlink:href="#BitstreamVeraSans-Roman-31"/>
      <use x="286.279296875" xlink:href="#BitstreamVeraSans-Roman-32"/>
      <use x="349.90234375" xlink:href="#BitstreamVeraSans-Roman-34"/>
      <use x="413.525390625" xlink:href="#BitstreamVeraSans-Roman-2e"/>
      <use x="445.3125" xlink:href="#BitstreamVeraSans-Roman-31"/>
      <use x="508.935546875" xlink:href="#BitstreamVeraSans-Roman-39"/>
      <use x="572.55859375" xlink:href="#BitstreamVeraSans-Roman-30"/>
     </g>
    </g>
   </g>
   <g id="text_9">
    <g clip-path="url(#p5a67343740)">
     <!-- 209.124.177.181  -->
     <g transform="translate(182.755248901 289.849901638)scale(0.05 -0.05)">
      <use xlink:href="#BitstreamVeraSans-Roman-32"/>
      <use x="63.623046875" xlink:href="#BitstreamVeraSans-Roman-30"/>
      <use x="127.24609375" xlink:href="#BitstreamVeraSans-Roman-39"/>
      <use x="190.869140625" xlink:href="#BitstreamVeraSans-Roman-2e"/>
      <use x="222.65625" xlink:href="#BitstreamVeraSans-Roman-31"/>
      <use x="286.279296875" xlink:href="#BitstreamVeraSans-Roman-32"/>
      <use x="349.90234375" xlink:href="#BitstreamVeraSans-Roman-34"/>
      <use x="413.525390625" xlink:href="#BitstreamVeraSans-Roman-2e"/>
      <use x="445.3125" xlink:href="#BitstreamVeraSans-Roman-31"/>
      <use x="508.935546875" xlink:href="#BitstreamVeraSans-Roman-37"/>
      <use x="572.55859375" xlink:href="#BitstreamVeraSans-Roman-37"/>
      <use x="636.181640625" xlink:href="#BitstreamVeraSans-Roman-2e"/>
      <use x="667.96875" xlink:href="#BitstreamVeraSans-Roman-31"/>
      <use x="731.591796875" xlink:href="#BitstreamVeraSans-Roman-38"/>
      <use x="795.21484375" xlink:href="#BitstreamVeraSans-Roman-31"/>
      <use x="858.837890625" xlink:href="#BitstreamVeraSans-Roman-20"/>
     </g>
    </g>
   </g>
   <g id="text_10">
    <g clip-path="url(#p5a67343740)">
     <!-- 209.124.177.180  -->
     <g transform="translate(88.6741282945 328.770861249)scale(0.05 -0.05)">
      <use xlink:href="#BitstreamVeraSans-Roman-32"/>
      <use x="63.623046875" xlink:href="#BitstreamVeraSans-Roman-30"/>
      <use x="127.24609375" xlink:href="#BitstreamVeraSans-Roman-39"/>
      <use x="190.869140625" xlink:href="#BitstreamVeraSans-Roman-2e"/>
      <use x="222.65625" xlink:href="#BitstreamVeraSans-Roman-31"/>
      <use x="286.279296875" xlink:href="#BitstreamVeraSans-Roman-32"/>
      <use x="349.90234375" xlink:href="#BitstreamVeraSans-Roman-34"/>
      <use x="413.525390625" xlink:href="#BitstreamVeraSans-Roman-2e"/>
      <use x="445.3125" xlink:href="#BitstreamVeraSans-Roman-31"/>
      <use x="508.935546875" xlink:href="#BitstreamVeraSans-Roman-37"/>
      <use x="572.55859375" xlink:href="#BitstreamVeraSans-Roman-37"/>
      <use x="636.181640625" xlink:href="#BitstreamVeraSans-Roman-2e"/>
      <use x="667.96875" xlink:href="#BitstreamVeraSans-Roman-31"/>
      <use x="731.591796875" xlink:href="#BitstreamVeraSans-Roman-38"/>
      <use x="795.21484375" xlink:href="#BitstreamVeraSans-Roman-30"/>
      <use x="858.837890625" xlink:href="#BitstreamVeraSans-Roman-20"/>
     </g>
    </g>
   </g>
  </g>
 </g>
 <defs>
  <clipPath id="p5a67343740">
   <rect height="432.0" width="576.0" x="0.0" y="0.0"/>
  </clipPath>
 </defs>
</svg>
