<?xml version="1.0" encoding="utf-8" standalone="no"?>
<!DOCTYPE svg PUBLIC "-//W3C//DTD SVG 1.1//EN"
  "http://www.w3.org/Graphics/SVG/1.1/DTD/svg11.dtd">
<!-- Created with matplotlib (http://matplotlib.org/) -->
<svg height="432pt" version="1.1" viewBox="0 0 576 432" width="576pt" xmlns="http://www.w3.org/2000/svg" xmlns:xlink="http://www.w3.org/1999/xlink">
 <defs>
  <style type="text/css">
*{stroke-linecap:butt;stroke-linejoin:round;}
  </style>
 </defs>
 <g id="figure_1">
  <g id="patch_1">
   <path d="
M0 432
L576 432
L576 0
L0 0
z
" style="fill:#ffffff;"/>
  </g>
  <g id="axes_1">
   <g id="LineCollection_1">
    <defs>
     <path d="
M174.95 -299.65
L254.037 -226.474" id="C0_0_3defafbc29"/>
     <path d="
M174.95 -299.65
L96 -370.286" id="C0_1_2948355ca1"/>
     <path d="
M254.037 -226.474
L201.66 -217.054" id="C0_2_43c683f920"/>
     <path d="
M254.037 -226.474
L314.738 -159.394" id="C0_3_ff4a889ec7"/>
     <path d="
M254.037 -226.474
L207.613 -234.015" id="C0_4_091ddb1745"/>
     <path d="
M254.037 -226.474
L254.037 -226.474" id="C0_5_c87ba5c100"/>
     <path d="
M254.037 -226.474
L310.662 -214.376" id="C0_6_b4df3f9dc0"/>
     <path d="
M254.037 -226.474
L295.99 -197.417" id="C0_7_6fbf0987e5"/>
     <path d="
M314.738 -159.394
L528.447 -61.7143" id="C0_8_ddd91d5c28"/>
     <path d="
M314.738 -159.394
L101.004 -232.229" id="C0_9_16ab452459"/>
     <path d="
M207.613 -234.015
L201.66 -217.054" id="C0_a_f7aee91c86"/>
     <path d="
M201.66 -217.054
L295.99 -197.417" id="C0_b_370a5d033f"/>
     <path d="
M201.66 -217.054
L101.004 -232.229" id="C0_c_48c4de250e"/>
     <path d="
M310.662 -214.376
L310.662 -214.376" id="C0_d_81f886d99f"/>
     <path d="
M310.662 -214.376
L295.99 -197.417" id="C0_e_87adb023b1"/>
     <path d="
M295.99 -197.417
L295.99 -197.417" id="C0_f_907ffaa094"/>
     <path d="
M295.99 -197.417
L101.004 -232.229" id="C0_10_8b75a1976c"/>
    </defs>
    <g clip-path="url(#p5a67343740)">
     <use style="fill:none;stroke:#000000;stroke-width:0.1;" x="0.0" xlink:href="#C0_0_3defafbc29" y="432.0"/>
    </g>
    <g clip-path="url(#p5a67343740)">
     <use style="fill:none;stroke:#000000;stroke-width:0.1;" x="0.0" xlink:href="#C0_1_2948355ca1" y="432.0"/>
    </g>
    <g clip-path="url(#p5a67343740)">
     <use style="fill:none;stroke:#000000;stroke-width:0.1;" x="0.0" xlink:href="#C0_2_43c683f920" y="432.0"/>
    </g>
    <g clip-path="url(#p5a67343740)">
     <use style="fill:none;stroke:#000000;stroke-width:0.1;" x="0.0" xlink:href="#C0_3_ff4a889ec7" y="432.0"/>
    </g>
    <g clip-path="url(#p5a67343740)">
     <use style="fill:none;stroke:#000000;stroke-width:0.1;" x="0.0" xlink:href="#C0_4_091ddb1745" y="432.0"/>
    </g>
    <g clip-path="url(#p5a67343740)">
     <use style="fill:none;stroke:#000000;stroke-width:0.1;" x="0.0" xlink:href="#C0_5_c87ba5c100" y="432.0"/>
    </g>
    <g clip-path="url(#p5a67343740)">
     <use style="fill:none;stroke:#000000;stroke-width:0.1;" x="0.0" xlink:href="#C0_6_b4df3f9dc0" y="432.0"/>
    </g>
    <g clip-path="url(#p5a67343740)">
     <use style="fill:none;stroke:#000000;stroke-width:0.1;" x="0.0" xlink:href="#C0_7_6fbf0987e5" y="432.0"/>
    </g>
    <g clip-path="url(#p5a67343740)">
     <use style="fill:none;stroke:#000000;stroke-width:0.1;" x="0.0" xlink:href="#C0_8_ddd91d5c28" y="432.0"/>
    </g>
    <g clip-path="url(#p5a67343740)">
     <use style="fill:none;stroke:#000000;stroke-width:0.1;" x="0.0" xlink:href="#C0_9_16ab452459" y="432.0"/>
    </g>
    <g clip-path="url(#p5a67343740)">
     <use style="fill:none;stroke:#000000;stroke-width:0.1;" x="0.0" xlink:href="#C0_a_f7aee91c86" y="432.0"/>
    </g>
    <g clip-path="url(#p5a67343740)">
     <use style="fill:none;stroke:#000000;stroke-width:0.1;" x="0.0" xlink:href="#C0_b_370a5d033f" y="432.0"/>
    </g>
    <g clip-path="url(#p5a67343740)">
     <use style="fill:none;stroke:#000000;stroke-width:0.1;" x="0.0" xlink:href="#C0_c_48c4de250e" y="432.0"/>
    </g>
    <g clip-path="url(#p5a67343740)">
     <use style="fill:none;stroke:#000000;stroke-width:0.1;" x="0.0" xlink:href="#C0_d_81f886d99f" y="432.0"/>
    </g>
    <g clip-path="url(#p5a67343740)">
     <use style="fill:none;stroke:#000000;stroke-width:0.1;" x="0.0" xlink:href="#C0_e_87adb023b1" y="432.0"/>
    </g>
    <g clip-path="url(#p5a67343740)">
     <use style="fill:none;stroke:#000000;stroke-width:0.1;" x="0.0" xlink:href="#C0_f_907ffaa094" y="432.0"/>
    </g>
    <g clip-path="url(#p5a67343740)">
     <use style="fill:none;stroke:#000000;stroke-width:0.1;" x="0.0" xlink:href="#C0_10_8b75a1976c" y="432.0"/>
    </g>
   </g>
   <g id="PathCollection_1">
    <defs>
     <path d="
M0 2.23607
C0.593012 2.23607 1.16182 2.00046 1.58114 1.58114
C2.00046 1.16182 2.23607 0.593012 2.23607 0
C2.23607 -0.593012 2.00046 -1.16182 1.58114 -1.58114
C1.16182 -2.00046 0.593012 -2.23607 0 -2.23607
C-0.593012 -2.23607 -1.16182 -2.00046 -1.58114 -1.58114
C-2.00046 -1.16182 -2.23607 -0.593012 -2.23607 0
C-2.23607 0.593012 -2.00046 1.16182 -1.58114 1.58114
C-1.16182 2.00046 -0.593012 2.23607 0 2.23607
z
" id="C1_0_919e3f95db"/>
     <path d="
M0 4.1833
C1.10942 4.1833 2.17356 3.74252 2.95804 2.95804
C3.74252 2.17356 4.1833 1.10942 4.1833 0
C4.1833 -1.10942 3.74252 -2.17356 2.95804 -2.95804
C2.17356 -3.74252 1.10942 -4.1833 0 -4.1833
C-1.10942 -4.1833 -2.17356 -3.74252 -2.95804 -2.95804
C-3.74252 -2.17356 -4.1833 -1.10942 -4.1833 0
C-4.1833 1.10942 -3.74252 2.17356 -2.95804 2.95804
C-2.17356 3.74252 -1.10942 4.1833 0 4.1833
z
" id="C1_1_43ed0d6c61"/>
     <path d="
M0 2.73861
C0.726289 2.73861 1.42293 2.45006 1.93649 1.93649
C2.45006 1.42293 2.73861 0.726289 2.73861 0
C2.73861 -0.726289 2.45006 -1.42293 1.93649 -1.93649
C1.42293 -2.45006 0.726289 -2.73861 0 -2.73861
C-0.726289 -2.73861 -1.42293 -2.45006 -1.93649 -1.93649
C-2.45006 -1.42293 -2.73861 -0.726289 -2.73861 0
C-2.73861 0.726289 -2.45006 1.42293 -1.93649 1.93649
C-1.42293 2.45006 -0.726289 2.73861 0 2.73861
z
" id="C1_2_976255c095"/>
     <path d="
M0 2.23607
C0.593012 2.23607 1.16182 2.00046 1.58114 1.58114
C2.00046 1.16182 2.23607 0.593012 2.23607 0
C2.23607 -0.593012 2.00046 -1.16182 1.58114 -1.58114
C1.16182 -2.00046 0.593012 -2.23607 0 -2.23607
C-0.593012 -2.23607 -1.16182 -2.00046 -1.58114 -1.58114
C-2.00046 -1.16182 -2.23607 -0.593012 -2.23607 0
C-2.23607 0.593012 -2.00046 1.16182 -1.58114 1.58114
C-1.16182 2.00046 -0.593012 2.23607 0 2.23607
z
" id="C1_3_919e3f95db"/>
     <path d="
M0 1.58114
C0.419323 1.58114 0.821528 1.41454 1.11803 1.11803
C1.41454 0.821528 1.58114 0.419323 1.58114 0
C1.58114 -0.419323 1.41454 -0.821528 1.11803 -1.11803
C0.821528 -1.41454 0.419323 -1.58114 0 -1.58114
C-0.419323 -1.58114 -0.821528 -1.41454 -1.11803 -1.11803
C-1.41454 -0.821528 -1.58114 -0.419323 -1.58114 0
C-1.58114 0.419323 -1.41454 0.821528 -1.11803 1.11803
C-0.821528 1.41454 -0.419323 1.58114 0 1.58114
z
" id="C1_4_71348ff635"/>
     <path d="
M0 3.16228
C0.838646 3.16228 1.64306 2.82908 2.23607 2.23607
C2.82908 1.64306 3.16228 0.838646 3.16228 0
C3.16228 -0.838646 2.82908 -1.64306 2.23607 -2.23607
C1.64306 -2.82908 0.838646 -3.16228 0 -3.16228
C-0.838646 -3.16228 -1.64306 -2.82908 -2.23607 -2.23607
C-2.82908 -1.64306 -3.16228 -0.838646 -3.16228 0
C-3.16228 0.838646 -2.82908 1.64306 -2.23607 2.23607
C-1.64306 2.82908 -0.838646 3.16228 0 3.16228
z
" id="C1_5_b69519a06d"/>
     <path d="
M0 2.73861
C0.726289 2.73861 1.42293 2.45006 1.93649 1.93649
C2.45006 1.42293 2.73861 0.726289 2.73861 0
C2.73861 -0.726289 2.45006 -1.42293 1.93649 -1.93649
C1.42293 -2.45006 0.726289 -2.73861 0 -2.73861
C-0.726289 -2.73861 -1.42293 -2.45006 -1.93649 -1.93649
C-2.45006 -1.42293 -2.73861 -0.726289 -2.73861 0
C-2.73861 0.726289 -2.45006 1.42293 -1.93649 1.93649
C-1.42293 2.45006 -0.726289 2.73861 0 2.73861
z
" id="C1_6_976255c095"/>
     <path d="
M0 1.58114
C0.419323 1.58114 0.821528 1.41454 1.11803 1.11803
C1.41454 0.821528 1.58114 0.419323 1.58114 0
C1.58114 -0.419323 1.41454 -0.821528 1.11803 -1.11803
C0.821528 -1.41454 0.419323 -1.58114 0 -1.58114
C-0.419323 -1.58114 -0.821528 -1.41454 -1.11803 -1.11803
C-1.41454 -0.821528 -1.58114 -0.419323 -1.58114 0
C-1.58114 0.419323 -1.41454 0.821528 -1.11803 1.11803
C-0.821528 1.41454 -0.419323 1.58114 0 1.58114
z
" id="C1_7_71348ff635"/>
     <path d="
M0 3.53553
C0.937635 3.53553 1.83699 3.16301 2.5 2.5
C3.16301 1.83699 3.53553 0.937635 3.53553 0
C3.53553 -0.937635 3.16301 -1.83699 2.5 -2.5
C1.83699 -3.16301 0.937635 -3.53553 0 -3.53553
C-0.937635 -3.53553 -1.83699 -3.16301 -2.5 -2.5
C-3.16301 -1.83699 -3.53553 -0.937635 -3.53553 0
C-3.53553 0.937635 -3.16301 1.83699 -2.5 2.5
C-1.83699 3.16301 -0.937635 3.53553 0 3.53553
z
" id="C1_8_44316a752d"/>
     <path d="
M0 2.73861
C0.726289 2.73861 1.42293 2.45006 1.93649 1.93649
C2.45006 1.42293 2.73861 0.726289 2.73861 0
C2.73861 -0.726289 2.45006 -1.42293 1.93649 -1.93649
C1.42293 -2.45006 0.726289 -2.73861 0 -2.73861
C-0.726289 -2.73861 -1.42293 -2.45006 -1.93649 -1.93649
C-2.45006 -1.42293 -2.73861 -0.726289 -2.73861 0
C-2.73861 0.726289 -2.45006 1.42293 -1.93649 1.93649
C-1.42293 2.45006 -0.726289 2.73861 0 2.73861
z
" id="C1_9_976255c095"/>
    </defs>
    <g clip-path="url(#p5a67343740)">
     <use style="fill:#cd6155;stroke:#000000;" x="174.950297521" xlink:href="#C1_0_919e3f95db" y="132.349803153"/>
    </g>
    <g clip-path="url(#p5a67343740)">
     <use style="fill:#e74c3c;stroke:#000000;" x="254.037392655" xlink:href="#C1_1_43ed0d6c61" y="205.525629974"/>
    </g>
    <g clip-path="url(#p5a67343740)">
     <use style="fill:#e74c3c;stroke:#000000;" x="314.737520286" xlink:href="#C1_2_976255c095" y="272.606003653"/>
    </g>
    <g clip-path="url(#p5a67343740)">
     <use style="fill:#e74c3c;stroke:#000000;" x="207.613465494" xlink:href="#C1_3_919e3f95db" y="197.984877443"/>
    </g>
    <g clip-path="url(#p5a67343740)">
     <use style="fill:#e74c3c;stroke:#000000;" x="96.0" xlink:href="#C1_4_71348ff635" y="61.7142857143"/>
    </g>
    <g clip-path="url(#p5a67343740)">
     <use style="fill:#e74c3c;stroke:#000000;" x="201.660007281" xlink:href="#C1_5_b69519a06d" y="214.946149833"/>
    </g>
    <g clip-path="url(#p5a67343740)">
     <use style="fill:#e74c3c;stroke:#000000;" x="310.662203379" xlink:href="#C1_6_976255c095" y="217.623683481"/>
    </g>
    <g clip-path="url(#p5a67343740)">
     <use style="fill:#cd6155;stroke:#000000;" x="528.447366293" xlink:href="#C1_7_71348ff635" y="370.285714286"/>
    </g>
    <g clip-path="url(#p5a67343740)">
     <use style="fill:#ffffff;stroke:#000000;" x="295.989752233" xlink:href="#C1_8_44316a752d" y="234.582669285"/>
    </g>
    <g clip-path="url(#p5a67343740)">
     <use style="fill:#ffffff;stroke:#000000;" x="101.003998753" xlink:href="#C1_9_976255c095" y="199.770620053"/>
    </g>
   </g>
   <g id="text_1">
    <g clip-path="url(#p5a67343740)">
     <!-- GATEWAY -->
     <defs>
      <path d="
M59.5156 10.4062
L59.5156 29.9844
L43.4062 29.9844
L43.4062 38.0938
L69.2812 38.0938
L69.2812 6.78125
Q63.5781 2.73438 56.6875 0.65625
Q49.8125 -1.42188 42 -1.42188
Q24.9062 -1.42188 15.25 8.5625
Q5.60938 18.5625 5.60938 36.375
Q5.60938 54.25 15.25 64.2344
Q24.9062 74.2188 42 74.2188
Q49.125 74.2188 55.5469 72.4531
Q61.9688 70.7031 67.3906 67.2812
L67.3906 56.7812
Q61.9219 61.4219 55.7656 63.7656
Q49.6094 66.1094 42.8281 66.1094
Q29.4375 66.1094 22.7188 58.6406
Q16.0156 51.1719 16.0156 36.375
Q16.0156 21.625 22.7188 14.1562
Q29.4375 6.6875 42.8281 6.6875
Q48.0469 6.6875 52.1406 7.59375
Q56.25 8.5 59.5156 10.4062" id="BitstreamVeraSans-Roman-47"/>
      <path d="
M9.8125 72.9062
L55.9062 72.9062
L55.9062 64.5938
L19.6719 64.5938
L19.6719 43.0156
L54.3906 43.0156
L54.3906 34.7188
L19.6719 34.7188
L19.6719 8.29688
L56.7812 8.29688
L56.7812 0
L9.8125 0
z
" id="BitstreamVeraSans-Roman-45"/>
      <path d="
M-0.296875 72.9062
L61.375 72.9062
L61.375 64.5938
L35.5 64.5938
L35.5 0
L25.5938 0
L25.5938 64.5938
L-0.296875 64.5938
z
" id="BitstreamVeraSans-Roman-54"/>
      <path d="
M34.1875 63.1875
L20.7969 26.9062
L47.6094 26.9062
z

M28.6094 72.9062
L39.7969 72.9062
L67.5781 0
L57.3281 0
L50.6875 18.7031
L17.8281 18.7031
L11.1875 0
L0.78125 0
z
" id="BitstreamVeraSans-Roman-41"/>
      <path d="
M3.32812 72.9062
L13.2812 72.9062
L28.6094 11.2812
L43.8906 72.9062
L54.9844 72.9062
L70.3125 11.2812
L85.5938 72.9062
L95.6094 72.9062
L77.2969 0
L64.8906 0
L49.5156 63.2812
L33.9844 0
L21.5781 0
z
" id="BitstreamVeraSans-Roman-57"/>
      <path d="
M-0.203125 72.9062
L10.4062 72.9062
L30.6094 42.9219
L50.6875 72.9062
L61.2812 72.9062
L35.5 34.7188
L35.5 0
L25.5938 0
L25.5938 34.7188
z
" id="BitstreamVeraSans-Roman-59"/>
     </defs>
     <g transform="translate(246.95575203 206.353442474)scale(0.03 -0.03)">
      <use xlink:href="#BitstreamVeraSans-Roman-47"/>
      <use x="77.490234375" xlink:href="#BitstreamVeraSans-Roman-41"/>
      <use x="138.1484375" xlink:href="#BitstreamVeraSans-Roman-54"/>
      <use x="199.232421875" xlink:href="#BitstreamVeraSans-Roman-45"/>
      <use x="262.416015625" xlink:href="#BitstreamVeraSans-Roman-57"/>
      <use x="355.79296875" xlink:href="#BitstreamVeraSans-Roman-41"/>
      <use x="416.451171875" xlink:href="#BitstreamVeraSans-Roman-59"/>
     </g>
    </g>
   </g>
   <g id="text_2">
    <g clip-path="url(#p5a67343740)">
     <!-- 209.124.177.181  -->
     <defs>
      <path d="
M19.1875 8.29688
L53.6094 8.29688
L53.6094 0
L7.32812 0
L7.32812 8.29688
Q12.9375 14.1094 22.625 23.8906
Q32.3281 33.6875 34.8125 36.5312
Q39.5469 41.8438 41.4219 45.5312
Q43.3125 49.2188 43.3125 52.7812
Q43.3125 58.5938 39.2344 62.25
Q35.1562 65.9219 28.6094 65.9219
Q23.9688 65.9219 18.8125 64.3125
Q13.6719 62.7031 7.8125 59.4219
L7.8125 69.3906
Q13.7656 71.7812 18.9375 73
Q24.125 74.2188 28.4219 74.2188
Q39.75 74.2188 46.4844 68.5469
Q53.2188 62.8906 53.2188 53.4219
Q53.2188 48.9219 51.5312 44.8906
Q49.8594 40.875 45.4062 35.4062
Q44.1875 33.9844 37.6406 27.2188
Q31.1094 20.4531 19.1875 8.29688" id="BitstreamVeraSans-Roman-32"/>
      <path id="BitstreamVeraSans-Roman-20"/>
      <path d="
M31.7812 66.4062
Q24.1719 66.4062 20.3281 58.9062
Q16.5 51.4219 16.5 36.375
Q16.5 21.3906 20.3281 13.8906
Q24.1719 6.39062 31.7812 6.39062
Q39.4531 6.39062 43.2812 13.8906
Q47.125 21.3906 47.125 36.375
Q47.125 51.4219 43.2812 58.9062
Q39.4531 66.4062 31.7812 66.4062
M31.7812 74.2188
Q44.0469 74.2188 50.5156 64.5156
Q56.9844 54.8281 56.9844 36.375
Q56.9844 17.9688 50.5156 8.26562
Q44.0469 -1.42188 31.7812 -1.42188
Q19.5312 -1.42188 13.0625 8.26562
Q6.59375 17.9688 6.59375 36.375
Q6.59375 54.8281 13.0625 64.5156
Q19.5312 74.2188 31.7812 74.2188" id="BitstreamVeraSans-Roman-30"/>
      <path d="
M12.4062 8.29688
L28.5156 8.29688
L28.5156 63.9219
L10.9844 60.4062
L10.9844 69.3906
L28.4219 72.9062
L38.2812 72.9062
L38.2812 8.29688
L54.3906 8.29688
L54.3906 0
L12.4062 0
z
" id="BitstreamVeraSans-Roman-31"/>
      <path d="
M8.20312 72.9062
L55.0781 72.9062
L55.0781 68.7031
L28.6094 0
L18.3125 0
L43.2188 64.5938
L8.20312 64.5938
z
" id="BitstreamVeraSans-Roman-37"/>
      <path d="
M37.7969 64.3125
L12.8906 25.3906
L37.7969 25.3906
z

M35.2031 72.9062
L47.6094 72.9062
L47.6094 25.3906
L58.0156 25.3906
L58.0156 17.1875
L47.6094 17.1875
L47.6094 0
L37.7969 0
L37.7969 17.1875
L4.89062 17.1875
L4.89062 26.7031
z
" id="BitstreamVeraSans-Roman-34"/>
      <path d="
M31.7812 34.625
Q24.75 34.625 20.7188 30.8594
Q16.7031 27.0938 16.7031 20.5156
Q16.7031 13.9219 20.7188 10.1562
Q24.75 6.39062 31.7812 6.39062
Q38.8125 6.39062 42.8594 10.1719
Q46.9219 13.9688 46.9219 20.5156
Q46.9219 27.0938 42.8906 30.8594
Q38.875 34.625 31.7812 34.625
M21.9219 38.8125
Q15.5781 40.375 12.0312 44.7188
Q8.5 49.0781 8.5 55.3281
Q8.5 64.0625 14.7188 69.1406
Q20.9531 74.2188 31.7812 74.2188
Q42.6719 74.2188 48.875 69.1406
Q55.0781 64.0625 55.0781 55.3281
Q55.0781 49.0781 51.5312 44.7188
Q48 40.375 41.7031 38.8125
Q48.8281 37.1562 52.7969 32.3125
Q56.7812 27.4844 56.7812 20.5156
Q56.7812 9.90625 50.3125 4.23438
Q43.8438 -1.42188 31.7812 -1.42188
Q19.7344 -1.42188 13.25 4.23438
Q6.78125 9.90625 6.78125 20.5156
Q6.78125 27.4844 10.7812 32.3125
Q14.7969 37.1562 21.9219 38.8125
M18.3125 54.3906
Q18.3125 48.7344 21.8438 45.5625
Q25.3906 42.3906 31.7812 42.3906
Q38.1406 42.3906 41.7188 45.5625
Q45.3125 48.7344 45.3125 54.3906
Q45.3125 60.0625 41.7188 63.2344
Q38.1406 66.4062 31.7812 66.4062
Q25.3906 66.4062 21.8438 63.2344
Q18.3125 60.0625 18.3125 54.3906" id="BitstreamVeraSans-Roman-38"/>
      <path d="
M10.9844 1.51562
L10.9844 10.5
Q14.7031 8.73438 18.5 7.8125
Q22.3125 6.89062 25.9844 6.89062
Q35.75 6.89062 40.8906 13.4531
Q46.0469 20.0156 46.7812 33.4062
Q43.9531 29.2031 39.5938 26.9531
Q35.25 24.7031 29.9844 24.7031
Q19.0469 24.7031 12.6719 31.3125
Q6.29688 37.9375 6.29688 49.4219
Q6.29688 60.6406 12.9375 67.4219
Q19.5781 74.2188 30.6094 74.2188
Q43.2656 74.2188 49.9219 64.5156
Q56.5938 54.8281 56.5938 36.375
Q56.5938 19.1406 48.4062 8.85938
Q40.2344 -1.42188 26.4219 -1.42188
Q22.7031 -1.42188 18.8906 -0.6875
Q15.0938 0.046875 10.9844 1.51562
M30.6094 32.4219
Q37.25 32.4219 41.125 36.9531
Q45.0156 41.5 45.0156 49.4219
Q45.0156 57.2812 41.125 61.8438
Q37.25 66.4062 30.6094 66.4062
Q23.9688 66.4062 20.0938 61.8438
Q16.2188 57.2812 16.2188 49.4219
Q16.2188 41.5 20.0938 36.9531
Q23.9688 32.4219 30.6094 32.4219" id="BitstreamVeraSans-Roman-39"/>
      <path d="
M10.6875 12.4062
L21 12.4062
L21 0
L10.6875 0
z
" id="BitstreamVeraSans-Roman-2e"/>
     </defs>
     <g transform="translate(283.245611608 235.410481785)scale(0.03 -0.03)">
      <use xlink:href="#BitstreamVeraSans-Roman-32"/>
      <use x="63.623046875" xlink:href="#BitstreamVeraSans-Roman-30"/>
      <use x="127.24609375" xlink:href="#BitstreamVeraSans-Roman-39"/>
      <use x="190.869140625" xlink:href="#BitstreamVeraSans-Roman-2e"/>
      <use x="222.65625" xlink:href="#BitstreamVeraSans-Roman-31"/>
      <use x="286.279296875" xlink:href="#BitstreamVeraSans-Roman-32"/>
      <use x="349.90234375" xlink:href="#BitstreamVeraSans-Roman-34"/>
      <use x="413.525390625" xlink:href="#BitstreamVeraSans-Roman-2e"/>
      <use x="445.3125" xlink:href="#BitstreamVeraSans-Roman-31"/>
      <use x="508.935546875" xlink:href="#BitstreamVeraSans-Roman-37"/>
      <use x="572.55859375" xlink:href="#BitstreamVeraSans-Roman-37"/>
      <use x="636.181640625" xlink:href="#BitstreamVeraSans-Roman-2e"/>
      <use x="667.96875" xlink:href="#BitstreamVeraSans-Roman-31"/>
      <use x="731.591796875" xlink:href="#BitstreamVeraSans-Roman-38"/>
      <use x="795.21484375" xlink:href="#BitstreamVeraSans-Roman-31"/>
      <use x="858.837890625" xlink:href="#BitstreamVeraSans-Roman-20"/>
     </g>
    </g>
   </g>
   <g id="text_3">
    <g clip-path="url(#p5a67343740)">
     <!-- 209.124.177.180  -->
     <g transform="translate(88.2209518785 200.598432553)scale(0.03 -0.03)">
      <use xlink:href="#BitstreamVeraSans-Roman-32"/>
      <use x="63.623046875" xlink:href="#BitstreamVeraSans-Roman-30"/>
      <use x="127.24609375" xlink:href="#BitstreamVeraSans-Roman-39"/>
      <use x="190.869140625" xlink:href="#BitstreamVeraSans-Roman-2e"/>
      <use x="222.65625" xlink:href="#BitstreamVeraSans-Roman-31"/>
      <use x="286.279296875" xlink:href="#BitstreamVeraSans-Roman-32"/>
      <use x="349.90234375" xlink:href="#BitstreamVeraSans-Roman-34"/>
      <use x="413.525390625" xlink:href="#BitstreamVeraSans-Roman-2e"/>
      <use x="445.3125" xlink:href="#BitstreamVeraSans-Roman-31"/>
      <use x="508.935546875" xlink:href="#BitstreamVeraSans-Roman-37"/>
      <use x="572.55859375" xlink:href="#BitstreamVeraSans-Roman-37"/>
      <use x="636.181640625" xlink:href="#BitstreamVeraSans-Roman-2e"/>
      <use x="667.96875" xlink:href="#BitstreamVeraSans-Roman-31"/>
      <use x="731.591796875" xlink:href="#BitstreamVeraSans-Roman-38"/>
      <use x="795.21484375" xlink:href="#BitstreamVeraSans-Roman-30"/>
      <use x="858.837890625" xlink:href="#BitstreamVeraSans-Roman-20"/>
     </g>
    </g>
   </g>
  </g>
 </g>
 <defs>
  <clipPath id="p5a67343740">
   <rect height="432.0" width="576.0" x="0.0" y="0.0"/>
  </clipPath>
 </defs>
</svg>
