<?xml version="1.0" encoding="utf-8" standalone="no"?>
<!DOCTYPE svg PUBLIC "-//W3C//DTD SVG 1.1//EN"
  "http://www.w3.org/Graphics/SVG/1.1/DTD/svg11.dtd">
<!-- Created with matplotlib (http://matplotlib.org/) -->
<svg height="432pt" version="1.1" viewBox="0 0 576 432" width="576pt" xmlns="http://www.w3.org/2000/svg" xmlns:xlink="http://www.w3.org/1999/xlink">
 <defs>
  <style type="text/css">
*{stroke-linecap:butt;stroke-linejoin:round;}
  </style>
 </defs>
 <g id="figure_1">
  <g id="patch_1">
   <path d="
M0 432
L576 432
L576 0
L0 0
z
" style="fill:#ffffff;"/>
  </g>
  <g id="axes_1">
   <g id="LineCollection_1">
    <defs>
     <path d="
M296.707 -147.373
L313.461 -179.12" id="C0_0_f409c63237"/>
     <path d="
M82.2857 -344.569
L286.294 -221.231" id="C0_1_517e87afb1"/>
     <path d="
M82.2857 -344.569
L196.14 -262.381" id="C0_2_8b5b155ed1"/>
     <path d="
M196.14 -262.381
L313.461 -179.12" id="C0_3_58cb3c0cfb"/>
     <path d="
M313.519 -231.433
L296.068 -248.879" id="C0_4_a9f2acd357"/>
     <path d="
M313.519 -231.433
L291.594 -199.492" id="C0_5_9fc5bbeb7a"/>
     <path d="
M254.693 -187.864
L291.594 -199.492" id="C0_6_d4e7075ad1"/>
     <path d="
M344.248 -154.264
L313.461 -179.12" id="C0_7_b0b41be90c"/>
     <path d="
M344.248 -154.264
L334.93 -180.222" id="C0_8_08b643d740"/>
     <path d="
M493.714 -72
L379.638 -149.753" id="C0_9_8fb43e78c9"/>
     <path d="
M493.714 -72
L413.762 -113.879" id="C0_a_d44f7e42d3"/>
     <path d="
M313.461 -179.12
L413.762 -113.879" id="C0_b_afcd4044e0"/>
     <path d="
M313.461 -179.12
L286.294 -221.231" id="C0_c_664db19c22"/>
     <path d="
M313.461 -179.12
L313.461 -179.12" id="C0_d_835a1c5743"/>
     <path d="
M313.461 -179.12
L379.638 -149.753" id="C0_e_f78c8751ab"/>
     <path d="
M313.461 -179.12
L334.93 -180.222" id="C0_f_9eb5e4e223"/>
     <path d="
M313.461 -179.12
L280.568 -198.089" id="C0_10_20d59dd2bc"/>
     <path d="
M313.461 -179.12
L328.371 -203.689" id="C0_11_8daf8d2ba9"/>
     <path d="
M313.461 -179.12
L291.594 -199.492" id="C0_12_242b1e2e13"/>
     <path d="
M313.461 -179.12
L332.183 -132.469" id="C0_13_06482a3fc3"/>
     <path d="
M313.461 -179.12
L289.116 -172.624" id="C0_14_18f9cd5b68"/>
     <path d="
M431.423 -147.012
L286.294 -221.231" id="C0_15_fc12e36bd1"/>
     <path d="
M431.423 -147.012
L363.946 -187.792" id="C0_16_9ae9116ab0"/>
     <path d="
M334.93 -180.222
L286.294 -221.231" id="C0_17_34ad67cc2b"/>
     <path d="
M334.93 -180.222
L379.638 -149.753" id="C0_18_fe83f431c2"/>
     <path d="
M379.638 -149.753
L286.294 -221.231" id="C0_19_4823c84c67"/>
     <path d="
M328.371 -203.689
L363.946 -187.792" id="C0_1a_e2940edf9f"/>
     <path d="
M328.371 -203.689
L286.294 -221.231" id="C0_1b_fa6339a3e1"/>
     <path d="
M280.568 -198.089
L286.294 -221.231" id="C0_1c_d7a4aee1a7"/>
     <path d="
M296.068 -248.879
L286.294 -221.231" id="C0_1d_e6170d8a79"/>
     <path d="
M291.594 -199.492
L286.294 -221.231" id="C0_1e_ff593e751a"/>
     <path d="
M291.594 -199.492
L291.594 -199.492" id="C0_1f_c1f3549b8b"/>
     <path d="
M291.594 -199.492
L289.116 -172.624" id="C0_20_1cdc3dbf02"/>
     <path d="
M286.294 -221.231
L286.294 -221.231" id="C0_21_353b6de156"/>
     <path d="
M286.294 -221.231
L363.946 -187.792" id="C0_22_6f438fe200"/>
    </defs>
    <g clip-path="url(#p5a67343740)">
     <use style="fill:none;stroke:#000000;stroke-width:0.1;" x="0.0" xlink:href="#C0_0_f409c63237" y="432.0"/>
    </g>
    <g clip-path="url(#p5a67343740)">
     <use style="fill:none;stroke:#000000;stroke-width:0.1;" x="0.0" xlink:href="#C0_1_517e87afb1" y="432.0"/>
    </g>
    <g clip-path="url(#p5a67343740)">
     <use style="fill:none;stroke:#000000;stroke-width:0.1;" x="0.0" xlink:href="#C0_2_8b5b155ed1" y="432.0"/>
    </g>
    <g clip-path="url(#p5a67343740)">
     <use style="fill:none;stroke:#000000;stroke-width:0.1;" x="0.0" xlink:href="#C0_3_58cb3c0cfb" y="432.0"/>
    </g>
    <g clip-path="url(#p5a67343740)">
     <use style="fill:none;stroke:#000000;stroke-width:0.1;" x="0.0" xlink:href="#C0_4_a9f2acd357" y="432.0"/>
    </g>
    <g clip-path="url(#p5a67343740)">
     <use style="fill:none;stroke:#000000;stroke-width:0.1;" x="0.0" xlink:href="#C0_5_9fc5bbeb7a" y="432.0"/>
    </g>
    <g clip-path="url(#p5a67343740)">
     <use style="fill:none;stroke:#000000;stroke-width:0.1;" x="0.0" xlink:href="#C0_6_d4e7075ad1" y="432.0"/>
    </g>
    <g clip-path="url(#p5a67343740)">
     <use style="fill:none;stroke:#000000;stroke-width:0.1;" x="0.0" xlink:href="#C0_7_b0b41be90c" y="432.0"/>
    </g>
    <g clip-path="url(#p5a67343740)">
     <use style="fill:none;stroke:#000000;stroke-width:0.1;" x="0.0" xlink:href="#C0_8_08b643d740" y="432.0"/>
    </g>
    <g clip-path="url(#p5a67343740)">
     <use style="fill:none;stroke:#000000;stroke-width:0.1;" x="0.0" xlink:href="#C0_9_8fb43e78c9" y="432.0"/>
    </g>
    <g clip-path="url(#p5a67343740)">
     <use style="fill:none;stroke:#000000;stroke-width:0.1;" x="0.0" xlink:href="#C0_a_d44f7e42d3" y="432.0"/>
    </g>
    <g clip-path="url(#p5a67343740)">
     <use style="fill:none;stroke:#000000;stroke-width:0.1;" x="0.0" xlink:href="#C0_b_afcd4044e0" y="432.0"/>
    </g>
    <g clip-path="url(#p5a67343740)">
     <use style="fill:none;stroke:#000000;stroke-width:0.1;" x="0.0" xlink:href="#C0_c_664db19c22" y="432.0"/>
    </g>
    <g clip-path="url(#p5a67343740)">
     <use style="fill:none;stroke:#000000;stroke-width:0.1;" x="0.0" xlink:href="#C0_d_835a1c5743" y="432.0"/>
    </g>
    <g clip-path="url(#p5a67343740)">
     <use style="fill:none;stroke:#000000;stroke-width:0.1;" x="0.0" xlink:href="#C0_e_f78c8751ab" y="432.0"/>
    </g>
    <g clip-path="url(#p5a67343740)">
     <use style="fill:none;stroke:#000000;stroke-width:0.1;" x="0.0" xlink:href="#C0_f_9eb5e4e223" y="432.0"/>
    </g>
    <g clip-path="url(#p5a67343740)">
     <use style="fill:none;stroke:#000000;stroke-width:0.1;" x="0.0" xlink:href="#C0_10_20d59dd2bc" y="432.0"/>
    </g>
    <g clip-path="url(#p5a67343740)">
     <use style="fill:none;stroke:#000000;stroke-width:0.1;" x="0.0" xlink:href="#C0_11_8daf8d2ba9" y="432.0"/>
    </g>
    <g clip-path="url(#p5a67343740)">
     <use style="fill:none;stroke:#000000;stroke-width:0.1;" x="0.0" xlink:href="#C0_12_242b1e2e13" y="432.0"/>
    </g>
    <g clip-path="url(#p5a67343740)">
     <use style="fill:none;stroke:#000000;stroke-width:0.1;" x="0.0" xlink:href="#C0_13_06482a3fc3" y="432.0"/>
    </g>
    <g clip-path="url(#p5a67343740)">
     <use style="fill:none;stroke:#000000;stroke-width:0.1;" x="0.0" xlink:href="#C0_14_18f9cd5b68" y="432.0"/>
    </g>
    <g clip-path="url(#p5a67343740)">
     <use style="fill:none;stroke:#000000;stroke-width:0.1;" x="0.0" xlink:href="#C0_15_fc12e36bd1" y="432.0"/>
    </g>
    <g clip-path="url(#p5a67343740)">
     <use style="fill:none;stroke:#000000;stroke-width:0.1;" x="0.0" xlink:href="#C0_16_9ae9116ab0" y="432.0"/>
    </g>
    <g clip-path="url(#p5a67343740)">
     <use style="fill:none;stroke:#000000;stroke-width:0.1;" x="0.0" xlink:href="#C0_17_34ad67cc2b" y="432.0"/>
    </g>
    <g clip-path="url(#p5a67343740)">
     <use style="fill:none;stroke:#000000;stroke-width:0.1;" x="0.0" xlink:href="#C0_18_fe83f431c2" y="432.0"/>
    </g>
    <g clip-path="url(#p5a67343740)">
     <use style="fill:none;stroke:#000000;stroke-width:0.1;" x="0.0" xlink:href="#C0_19_4823c84c67" y="432.0"/>
    </g>
    <g clip-path="url(#p5a67343740)">
     <use style="fill:none;stroke:#000000;stroke-width:0.1;" x="0.0" xlink:href="#C0_1a_e2940edf9f" y="432.0"/>
    </g>
    <g clip-path="url(#p5a67343740)">
     <use style="fill:none;stroke:#000000;stroke-width:0.1;" x="0.0" xlink:href="#C0_1b_fa6339a3e1" y="432.0"/>
    </g>
    <g clip-path="url(#p5a67343740)">
     <use style="fill:none;stroke:#000000;stroke-width:0.1;" x="0.0" xlink:href="#C0_1c_d7a4aee1a7" y="432.0"/>
    </g>
    <g clip-path="url(#p5a67343740)">
     <use style="fill:none;stroke:#000000;stroke-width:0.1;" x="0.0" xlink:href="#C0_1d_e6170d8a79" y="432.0"/>
    </g>
    <g clip-path="url(#p5a67343740)">
     <use style="fill:none;stroke:#000000;stroke-width:0.1;" x="0.0" xlink:href="#C0_1e_ff593e751a" y="432.0"/>
    </g>
    <g clip-path="url(#p5a67343740)">
     <use style="fill:none;stroke:#000000;stroke-width:0.1;" x="0.0" xlink:href="#C0_1f_c1f3549b8b" y="432.0"/>
    </g>
    <g clip-path="url(#p5a67343740)">
     <use style="fill:none;stroke:#000000;stroke-width:0.1;" x="0.0" xlink:href="#C0_20_1cdc3dbf02" y="432.0"/>
    </g>
    <g clip-path="url(#p5a67343740)">
     <use style="fill:none;stroke:#000000;stroke-width:0.1;" x="0.0" xlink:href="#C0_21_353b6de156" y="432.0"/>
    </g>
    <g clip-path="url(#p5a67343740)">
     <use style="fill:none;stroke:#000000;stroke-width:0.1;" x="0.0" xlink:href="#C0_22_6f438fe200" y="432.0"/>
    </g>
   </g>
   <g id="PathCollection_1">
    <defs>
     <path d="
M0 1.58114
C0.419323 1.58114 0.821528 1.41454 1.11803 1.11803
C1.41454 0.821528 1.58114 0.419323 1.58114 0
C1.58114 -0.419323 1.41454 -0.821528 1.11803 -1.11803
C0.821528 -1.41454 0.419323 -1.58114 0 -1.58114
C-0.419323 -1.58114 -0.821528 -1.41454 -1.11803 -1.11803
C-1.41454 -0.821528 -1.58114 -0.419323 -1.58114 0
C-1.58114 0.419323 -1.41454 0.821528 -1.11803 1.11803
C-0.821528 1.41454 -0.419323 1.58114 0 1.58114
z
" id="C1_0_71348ff635"/>
     <path d="
M0 2.23607
C0.593012 2.23607 1.16182 2.00046 1.58114 1.58114
C2.00046 1.16182 2.23607 0.593012 2.23607 0
C2.23607 -0.593012 2.00046 -1.16182 1.58114 -1.58114
C1.16182 -2.00046 0.593012 -2.23607 0 -2.23607
C-0.593012 -2.23607 -1.16182 -2.00046 -1.58114 -1.58114
C-2.00046 -1.16182 -2.23607 -0.593012 -2.23607 0
C-2.23607 0.593012 -2.00046 1.16182 -1.58114 1.58114
C-1.16182 2.00046 -0.593012 2.23607 0 2.23607
z
" id="C1_1_919e3f95db"/>
     <path d="
M0 2.23607
C0.593012 2.23607 1.16182 2.00046 1.58114 1.58114
C2.00046 1.16182 2.23607 0.593012 2.23607 0
C2.23607 -0.593012 2.00046 -1.16182 1.58114 -1.58114
C1.16182 -2.00046 0.593012 -2.23607 0 -2.23607
C-0.593012 -2.23607 -1.16182 -2.00046 -1.58114 -1.58114
C-2.00046 -1.16182 -2.23607 -0.593012 -2.23607 0
C-2.23607 0.593012 -2.00046 1.16182 -1.58114 1.58114
C-1.16182 2.00046 -0.593012 2.23607 0 2.23607
z
" id="C1_2_919e3f95db"/>
     <path d="
M0 2.23607
C0.593012 2.23607 1.16182 2.00046 1.58114 1.58114
C2.00046 1.16182 2.23607 0.593012 2.23607 0
C2.23607 -0.593012 2.00046 -1.16182 1.58114 -1.58114
C1.16182 -2.00046 0.593012 -2.23607 0 -2.23607
C-0.593012 -2.23607 -1.16182 -2.00046 -1.58114 -1.58114
C-2.00046 -1.16182 -2.23607 -0.593012 -2.23607 0
C-2.23607 0.593012 -2.00046 1.16182 -1.58114 1.58114
C-1.16182 2.00046 -0.593012 2.23607 0 2.23607
z
" id="C1_3_919e3f95db"/>
     <path d="
M0 1.58114
C0.419323 1.58114 0.821528 1.41454 1.11803 1.11803
C1.41454 0.821528 1.58114 0.419323 1.58114 0
C1.58114 -0.419323 1.41454 -0.821528 1.11803 -1.11803
C0.821528 -1.41454 0.419323 -1.58114 0 -1.58114
C-0.419323 -1.58114 -0.821528 -1.41454 -1.11803 -1.11803
C-1.41454 -0.821528 -1.58114 -0.419323 -1.58114 0
C-1.58114 0.419323 -1.41454 0.821528 -1.11803 1.11803
C-0.821528 1.41454 -0.419323 1.58114 0 1.58114
z
" id="C1_4_71348ff635"/>
     <path d="
M0 2.23607
C0.593012 2.23607 1.16182 2.00046 1.58114 1.58114
C2.00046 1.16182 2.23607 0.593012 2.23607 0
C2.23607 -0.593012 2.00046 -1.16182 1.58114 -1.58114
C1.16182 -2.00046 0.593012 -2.23607 0 -2.23607
C-0.593012 -2.23607 -1.16182 -2.00046 -1.58114 -1.58114
C-2.00046 -1.16182 -2.23607 -0.593012 -2.23607 0
C-2.23607 0.593012 -2.00046 1.16182 -1.58114 1.58114
C-1.16182 2.00046 -0.593012 2.23607 0 2.23607
z
" id="C1_5_919e3f95db"/>
     <path d="
M0 2.23607
C0.593012 2.23607 1.16182 2.00046 1.58114 1.58114
C2.00046 1.16182 2.23607 0.593012 2.23607 0
C2.23607 -0.593012 2.00046 -1.16182 1.58114 -1.58114
C1.16182 -2.00046 0.593012 -2.23607 0 -2.23607
C-0.593012 -2.23607 -1.16182 -2.00046 -1.58114 -1.58114
C-2.00046 -1.16182 -2.23607 -0.593012 -2.23607 0
C-2.23607 0.593012 -2.00046 1.16182 -1.58114 1.58114
C-1.16182 2.00046 -0.593012 2.23607 0 2.23607
z
" id="C1_6_919e3f95db"/>
     <path d="
M0 5.70088
C1.51189 5.70088 2.96206 5.1002 4.03113 4.03113
C5.1002 2.96206 5.70088 1.51189 5.70088 0
C5.70088 -1.51189 5.1002 -2.96206 4.03113 -4.03113
C2.96206 -5.1002 1.51189 -5.70088 0 -5.70088
C-1.51189 -5.70088 -2.96206 -5.1002 -4.03113 -4.03113
C-5.1002 -2.96206 -5.70088 -1.51189 -5.70088 0
C-5.70088 1.51189 -5.1002 2.96206 -4.03113 4.03113
C-2.96206 5.1002 -1.51189 5.70088 0 5.70088
z
" id="C1_7_32752a9442"/>
     <path d="
M0 2.23607
C0.593012 2.23607 1.16182 2.00046 1.58114 1.58114
C2.00046 1.16182 2.23607 0.593012 2.23607 0
C2.23607 -0.593012 2.00046 -1.16182 1.58114 -1.58114
C1.16182 -2.00046 0.593012 -2.23607 0 -2.23607
C-0.593012 -2.23607 -1.16182 -2.00046 -1.58114 -1.58114
C-2.00046 -1.16182 -2.23607 -0.593012 -2.23607 0
C-2.23607 0.593012 -2.00046 1.16182 -1.58114 1.58114
C-1.16182 2.00046 -0.593012 2.23607 0 2.23607
z
" id="C1_8_919e3f95db"/>
     <path d="
M0 3.16228
C0.838646 3.16228 1.64306 2.82908 2.23607 2.23607
C2.82908 1.64306 3.16228 0.838646 3.16228 0
C3.16228 -0.838646 2.82908 -1.64306 2.23607 -2.23607
C1.64306 -2.82908 0.838646 -3.16228 0 -3.16228
C-0.838646 -3.16228 -1.64306 -2.82908 -2.23607 -2.23607
C-2.82908 -1.64306 -3.16228 -0.838646 -3.16228 0
C-3.16228 0.838646 -2.82908 1.64306 -2.23607 2.23607
C-1.64306 2.82908 -0.838646 3.16228 0 3.16228
z
" id="C1_9_b69519a06d"/>
     <path d="
M0 3.16228
C0.838646 3.16228 1.64306 2.82908 2.23607 2.23607
C2.82908 1.64306 3.16228 0.838646 3.16228 0
C3.16228 -0.838646 2.82908 -1.64306 2.23607 -2.23607
C1.64306 -2.82908 0.838646 -3.16228 0 -3.16228
C-0.838646 -3.16228 -1.64306 -2.82908 -2.23607 -2.23607
C-2.82908 -1.64306 -3.16228 -0.838646 -3.16228 0
C-3.16228 0.838646 -2.82908 1.64306 -2.23607 2.23607
C-1.64306 2.82908 -0.838646 3.16228 0 3.16228
z
" id="C1_a_b69519a06d"/>
     <path d="
M0 2.73861
C0.726289 2.73861 1.42293 2.45006 1.93649 1.93649
C2.45006 1.42293 2.73861 0.726289 2.73861 0
C2.73861 -0.726289 2.45006 -1.42293 1.93649 -1.93649
C1.42293 -2.45006 0.726289 -2.73861 0 -2.73861
C-0.726289 -2.73861 -1.42293 -2.45006 -1.93649 -1.93649
C-2.45006 -1.42293 -2.73861 -0.726289 -2.73861 0
C-2.73861 0.726289 -2.45006 1.42293 -1.93649 1.93649
C-1.42293 2.45006 -0.726289 2.73861 0 2.73861
z
" id="C1_b_976255c095"/>
     <path d="
M0 2.23607
C0.593012 2.23607 1.16182 2.00046 1.58114 1.58114
C2.00046 1.16182 2.23607 0.593012 2.23607 0
C2.23607 -0.593012 2.00046 -1.16182 1.58114 -1.58114
C1.16182 -2.00046 0.593012 -2.23607 0 -2.23607
C-0.593012 -2.23607 -1.16182 -2.00046 -1.58114 -1.58114
C-2.00046 -1.16182 -2.23607 -0.593012 -2.23607 0
C-2.23607 0.593012 -2.00046 1.16182 -1.58114 1.58114
C-1.16182 2.00046 -0.593012 2.23607 0 2.23607
z
" id="C1_c_919e3f95db"/>
     <path d="
M0 2.23607
C0.593012 2.23607 1.16182 2.00046 1.58114 1.58114
C2.00046 1.16182 2.23607 0.593012 2.23607 0
C2.23607 -0.593012 2.00046 -1.16182 1.58114 -1.58114
C1.16182 -2.00046 0.593012 -2.23607 0 -2.23607
C-0.593012 -2.23607 -1.16182 -2.00046 -1.58114 -1.58114
C-2.00046 -1.16182 -2.23607 -0.593012 -2.23607 0
C-2.23607 0.593012 -2.00046 1.16182 -1.58114 1.58114
C-1.16182 2.00046 -0.593012 2.23607 0 2.23607
z
" id="C1_d_919e3f95db"/>
     <path d="
M0 3.87298
C1.02713 3.87298 2.01232 3.4649 2.73861 2.73861
C3.4649 2.01232 3.87298 1.02713 3.87298 0
C3.87298 -1.02713 3.4649 -2.01232 2.73861 -2.73861
C2.01232 -3.4649 1.02713 -3.87298 0 -3.87298
C-1.02713 -3.87298 -2.01232 -3.4649 -2.73861 -2.73861
C-3.4649 -2.01232 -3.87298 -1.02713 -3.87298 0
C-3.87298 1.02713 -3.4649 2.01232 -2.73861 2.73861
C-2.01232 3.4649 -1.02713 3.87298 0 3.87298
z
" id="C1_e_5009dfc2f8"/>
     <path d="
M0 2.23607
C0.593012 2.23607 1.16182 2.00046 1.58114 1.58114
C2.00046 1.16182 2.23607 0.593012 2.23607 0
C2.23607 -0.593012 2.00046 -1.16182 1.58114 -1.58114
C1.16182 -2.00046 0.593012 -2.23607 0 -2.23607
C-0.593012 -2.23607 -1.16182 -2.00046 -1.58114 -1.58114
C-2.00046 -1.16182 -2.23607 -0.593012 -2.23607 0
C-2.23607 0.593012 -2.00046 1.16182 -1.58114 1.58114
C-1.16182 2.00046 -0.593012 2.23607 0 2.23607
z
" id="C1_f_919e3f95db"/>
     <path d="
M0 2.23607
C0.593012 2.23607 1.16182 2.00046 1.58114 1.58114
C2.00046 1.16182 2.23607 0.593012 2.23607 0
C2.23607 -0.593012 2.00046 -1.16182 1.58114 -1.58114
C1.16182 -2.00046 0.593012 -2.23607 0 -2.23607
C-0.593012 -2.23607 -1.16182 -2.00046 -1.58114 -1.58114
C-2.00046 -1.16182 -2.23607 -0.593012 -2.23607 0
C-2.23607 0.593012 -2.00046 1.16182 -1.58114 1.58114
C-1.16182 2.00046 -0.593012 2.23607 0 2.23607
z
" id="C1_10_919e3f95db"/>
     <path d="
M0 5.24404
C1.39074 5.24404 2.7247 4.6915 3.7081 3.7081
C4.6915 2.7247 5.24404 1.39074 5.24404 0
C5.24404 -1.39074 4.6915 -2.7247 3.7081 -3.7081
C2.7247 -4.6915 1.39074 -5.24404 0 -5.24404
C-1.39074 -5.24404 -2.7247 -4.6915 -3.7081 -3.7081
C-4.6915 -2.7247 -5.24404 -1.39074 -5.24404 0
C-5.24404 1.39074 -4.6915 2.7247 -3.7081 3.7081
C-2.7247 4.6915 -1.39074 5.24404 0 5.24404
z
" id="C1_11_ddfc9e4283"/>
     <path d="
M0 1.58114
C0.419323 1.58114 0.821528 1.41454 1.11803 1.11803
C1.41454 0.821528 1.58114 0.419323 1.58114 0
C1.58114 -0.419323 1.41454 -0.821528 1.11803 -1.11803
C0.821528 -1.41454 0.419323 -1.58114 0 -1.58114
C-0.419323 -1.58114 -0.821528 -1.41454 -1.11803 -1.11803
C-1.41454 -0.821528 -1.58114 -0.419323 -1.58114 0
C-1.58114 0.419323 -1.41454 0.821528 -1.11803 1.11803
C-0.821528 1.41454 -0.419323 1.58114 0 1.58114
z
" id="C1_12_71348ff635"/>
     <path d="
M0 2.73861
C0.726289 2.73861 1.42293 2.45006 1.93649 1.93649
C2.45006 1.42293 2.73861 0.726289 2.73861 0
C2.73861 -0.726289 2.45006 -1.42293 1.93649 -1.93649
C1.42293 -2.45006 0.726289 -2.73861 0 -2.73861
C-0.726289 -2.73861 -1.42293 -2.45006 -1.93649 -1.93649
C-2.45006 -1.42293 -2.73861 -0.726289 -2.73861 0
C-2.73861 0.726289 -2.45006 1.42293 -1.93649 1.93649
C-1.42293 2.45006 -0.726289 2.73861 0 2.73861
z
" id="C1_13_976255c095"/>
    </defs>
    <g clip-path="url(#p5a67343740)">
     <use style="fill:#d35400;stroke:#000000;" x="296.707246797" xlink:href="#C1_0_71348ff635" y="284.627340626"/>
    </g>
    <g clip-path="url(#p5a67343740)">
     <use style="fill:#ffffff;stroke:#000000;" x="82.2857142857" xlink:href="#C1_1_919e3f95db" y="87.431003927"/>
    </g>
    <g clip-path="url(#p5a67343740)">
     <use style="fill:#ffffff;stroke:#000000;" x="196.140266589" xlink:href="#C1_2_919e3f95db" y="169.618975707"/>
    </g>
    <g clip-path="url(#p5a67343740)">
     <use style="fill:#ffffff;stroke:#000000;" x="313.518688948" xlink:href="#C1_3_919e3f95db" y="200.566786627"/>
    </g>
    <g clip-path="url(#p5a67343740)">
     <use style="fill:#ffffff;stroke:#000000;" x="254.692599022" xlink:href="#C1_4_71348ff635" y="244.135628124"/>
    </g>
    <g clip-path="url(#p5a67343740)">
     <use style="fill:#d35400;stroke:#000000;" x="344.248227129" xlink:href="#C1_5_919e3f95db" y="277.736356208"/>
    </g>
    <g clip-path="url(#p5a67343740)">
     <use style="fill:#d35400;stroke:#000000;" x="493.714285714" xlink:href="#C1_6_919e3f95db" y="360.0"/>
    </g>
    <g clip-path="url(#p5a67343740)">
     <use style="fill:#e74c3c;stroke:#000000;" x="313.460705134" xlink:href="#C1_7_32752a9442" y="252.879696437"/>
    </g>
    <g clip-path="url(#p5a67343740)">
     <use style="fill:#ffffff;stroke:#000000;" x="431.423145131" xlink:href="#C1_8_919e3f95db" y="284.987580506"/>
    </g>
    <g clip-path="url(#p5a67343740)">
     <use style="fill:#ffffff;stroke:#000000;" x="334.930278929" xlink:href="#C1_9_b69519a06d" y="251.778160207"/>
    </g>
    <g clip-path="url(#p5a67343740)">
     <use style="fill:#ffffff;stroke:#000000;" x="379.638408363" xlink:href="#C1_a_b69519a06d" y="282.246557795"/>
    </g>
    <g clip-path="url(#p5a67343740)">
     <use style="fill:#ffffff;stroke:#000000;" x="328.371180726" xlink:href="#C1_b_976255c095" y="228.310814461"/>
    </g>
    <g clip-path="url(#p5a67343740)">
     <use style="fill:#8e44ad;stroke:#000000;" x="280.567580866" xlink:href="#C1_c_919e3f95db" y="233.910636081"/>
    </g>
    <g clip-path="url(#p5a67343740)">
     <use style="fill:#ffffff;stroke:#000000;" x="296.068047977" xlink:href="#C1_d_919e3f95db" y="183.120939625"/>
    </g>
    <g clip-path="url(#p5a67343740)">
     <use style="fill:#ffffff;stroke:#000000;" x="291.594209135" xlink:href="#C1_e_5009dfc2f8" y="232.508308986"/>
    </g>
    <g clip-path="url(#p5a67343740)">
     <use style="fill:#ffffff;stroke:#000000;" x="289.11635258" xlink:href="#C1_f_919e3f95db" y="259.376106035"/>
    </g>
    <g clip-path="url(#p5a67343740)">
     <use style="fill:#d35400;stroke:#000000;" x="413.761731216" xlink:href="#C1_10_919e3f95db" y="318.120861853"/>
    </g>
    <g clip-path="url(#p5a67343740)">
     <use style="fill:#8e44ad;stroke:#000000;" x="286.293717781" xlink:href="#C1_11_ddfc9e4283" y="210.768534053"/>
    </g>
    <g clip-path="url(#p5a67343740)">
     <use style="fill:#d35400;stroke:#000000;" x="332.183332902" xlink:href="#C1_12_71348ff635" y="299.53142328"/>
    </g>
    <g clip-path="url(#p5a67343740)">
     <use style="fill:#ffffff;stroke:#000000;" x="363.946162543" xlink:href="#C1_13_976255c095" y="244.208287016"/>
    </g>
   </g>
   <g id="text_1">
    <g clip-path="url(#p5a67343740)">
     <!-- 204.69.11.1  -->
     <defs>
      <path d="
M19.1875 8.29688
L53.6094 8.29688
L53.6094 0
L7.32812 0
L7.32812 8.29688
Q12.9375 14.1094 22.625 23.8906
Q32.3281 33.6875 34.8125 36.5312
Q39.5469 41.8438 41.4219 45.5312
Q43.3125 49.2188 43.3125 52.7812
Q43.3125 58.5938 39.2344 62.25
Q35.1562 65.9219 28.6094 65.9219
Q23.9688 65.9219 18.8125 64.3125
Q13.6719 62.7031 7.8125 59.4219
L7.8125 69.3906
Q13.7656 71.7812 18.9375 73
Q24.125 74.2188 28.4219 74.2188
Q39.75 74.2188 46.4844 68.5469
Q53.2188 62.8906 53.2188 53.4219
Q53.2188 48.9219 51.5312 44.8906
Q49.8594 40.875 45.4062 35.4062
Q44.1875 33.9844 37.6406 27.2188
Q31.1094 20.4531 19.1875 8.29688" id="BitstreamVeraSans-Roman-32"/>
      <path id="BitstreamVeraSans-Roman-20"/>
      <path d="
M31.7812 66.4062
Q24.1719 66.4062 20.3281 58.9062
Q16.5 51.4219 16.5 36.375
Q16.5 21.3906 20.3281 13.8906
Q24.1719 6.39062 31.7812 6.39062
Q39.4531 6.39062 43.2812 13.8906
Q47.125 21.3906 47.125 36.375
Q47.125 51.4219 43.2812 58.9062
Q39.4531 66.4062 31.7812 66.4062
M31.7812 74.2188
Q44.0469 74.2188 50.5156 64.5156
Q56.9844 54.8281 56.9844 36.375
Q56.9844 17.9688 50.5156 8.26562
Q44.0469 -1.42188 31.7812 -1.42188
Q19.5312 -1.42188 13.0625 8.26562
Q6.59375 17.9688 6.59375 36.375
Q6.59375 54.8281 13.0625 64.5156
Q19.5312 74.2188 31.7812 74.2188" id="BitstreamVeraSans-Roman-30"/>
      <path d="
M12.4062 8.29688
L28.5156 8.29688
L28.5156 63.9219
L10.9844 60.4062
L10.9844 69.3906
L28.4219 72.9062
L38.2812 72.9062
L38.2812 8.29688
L54.3906 8.29688
L54.3906 0
L12.4062 0
z
" id="BitstreamVeraSans-Roman-31"/>
      <path d="
M33.0156 40.375
Q26.375 40.375 22.4844 35.8281
Q18.6094 31.2969 18.6094 23.3906
Q18.6094 15.5312 22.4844 10.9531
Q26.375 6.39062 33.0156 6.39062
Q39.6562 6.39062 43.5312 10.9531
Q47.4062 15.5312 47.4062 23.3906
Q47.4062 31.2969 43.5312 35.8281
Q39.6562 40.375 33.0156 40.375
M52.5938 71.2969
L52.5938 62.3125
Q48.875 64.0625 45.0938 64.9844
Q41.3125 65.9219 37.5938 65.9219
Q27.8281 65.9219 22.6719 59.3281
Q17.5312 52.7344 16.7969 39.4062
Q19.6719 43.6562 24.0156 45.9219
Q28.375 48.1875 33.5938 48.1875
Q44.5781 48.1875 50.9531 41.5156
Q57.3281 34.8594 57.3281 23.3906
Q57.3281 12.1562 50.6875 5.35938
Q44.0469 -1.42188 33.0156 -1.42188
Q20.3594 -1.42188 13.6719 8.26562
Q6.98438 17.9688 6.98438 36.375
Q6.98438 53.6562 15.1875 63.9375
Q23.3906 74.2188 37.2031 74.2188
Q40.9219 74.2188 44.7031 73.4844
Q48.4844 72.75 52.5938 71.2969" id="BitstreamVeraSans-Roman-36"/>
      <path d="
M37.7969 64.3125
L12.8906 25.3906
L37.7969 25.3906
z

M35.2031 72.9062
L47.6094 72.9062
L47.6094 25.3906
L58.0156 25.3906
L58.0156 17.1875
L47.6094 17.1875
L47.6094 0
L37.7969 0
L37.7969 17.1875
L4.89062 17.1875
L4.89062 26.7031
z
" id="BitstreamVeraSans-Roman-34"/>
      <path d="
M10.9844 1.51562
L10.9844 10.5
Q14.7031 8.73438 18.5 7.8125
Q22.3125 6.89062 25.9844 6.89062
Q35.75 6.89062 40.8906 13.4531
Q46.0469 20.0156 46.7812 33.4062
Q43.9531 29.2031 39.5938 26.9531
Q35.25 24.7031 29.9844 24.7031
Q19.0469 24.7031 12.6719 31.3125
Q6.29688 37.9375 6.29688 49.4219
Q6.29688 60.6406 12.9375 67.4219
Q19.5781 74.2188 30.6094 74.2188
Q43.2656 74.2188 49.9219 64.5156
Q56.5938 54.8281 56.5938 36.375
Q56.5938 19.1406 48.4062 8.85938
Q40.2344 -1.42188 26.4219 -1.42188
Q22.7031 -1.42188 18.8906 -0.6875
Q15.0938 0.046875 10.9844 1.51562
M30.6094 32.4219
Q37.25 32.4219 41.125 36.9531
Q45.0156 41.5 45.0156 49.4219
Q45.0156 57.2812 41.125 61.8438
Q37.25 66.4062 30.6094 66.4062
Q23.9688 66.4062 20.0938 61.8438
Q16.2188 57.2812 16.2188 49.4219
Q16.2188 41.5 20.0938 36.9531
Q23.9688 32.4219 30.6094 32.4219" id="BitstreamVeraSans-Roman-39"/>
      <path d="
M10.6875 12.4062
L21 12.4062
L21 0
L10.6875 0
z
" id="BitstreamVeraSans-Roman-2e"/>
     </defs>
     <g transform="translate(73.3590736607 88.258816427)scale(0.03 -0.03)">
      <use xlink:href="#BitstreamVeraSans-Roman-32"/>
      <use x="63.623046875" xlink:href="#BitstreamVeraSans-Roman-30"/>
      <use x="127.24609375" xlink:href="#BitstreamVeraSans-Roman-34"/>
      <use x="190.869140625" xlink:href="#BitstreamVeraSans-Roman-2e"/>
      <use x="222.65625" xlink:href="#BitstreamVeraSans-Roman-36"/>
      <use x="286.279296875" xlink:href="#BitstreamVeraSans-Roman-39"/>
      <use x="349.90234375" xlink:href="#BitstreamVeraSans-Roman-2e"/>
      <use x="381.689453125" xlink:href="#BitstreamVeraSans-Roman-31"/>
      <use x="445.3125" xlink:href="#BitstreamVeraSans-Roman-31"/>
      <use x="508.935546875" xlink:href="#BitstreamVeraSans-Roman-2e"/>
      <use x="540.72265625" xlink:href="#BitstreamVeraSans-Roman-31"/>
      <use x="604.345703125" xlink:href="#BitstreamVeraSans-Roman-20"/>
     </g>
    </g>
   </g>
   <g id="text_2">
    <g clip-path="url(#p5a67343740)">
     <!-- 204.69.11.2  -->
     <g transform="translate(187.225344714 170.446788207)scale(0.03 -0.03)">
      <use xlink:href="#BitstreamVeraSans-Roman-32"/>
      <use x="63.623046875" xlink:href="#BitstreamVeraSans-Roman-30"/>
      <use x="127.24609375" xlink:href="#BitstreamVeraSans-Roman-34"/>
      <use x="190.869140625" xlink:href="#BitstreamVeraSans-Roman-2e"/>
      <use x="222.65625" xlink:href="#BitstreamVeraSans-Roman-36"/>
      <use x="286.279296875" xlink:href="#BitstreamVeraSans-Roman-39"/>
      <use x="349.90234375" xlink:href="#BitstreamVeraSans-Roman-2e"/>
      <use x="381.689453125" xlink:href="#BitstreamVeraSans-Roman-31"/>
      <use x="445.3125" xlink:href="#BitstreamVeraSans-Roman-31"/>
      <use x="508.935546875" xlink:href="#BitstreamVeraSans-Roman-2e"/>
      <use x="540.72265625" xlink:href="#BitstreamVeraSans-Roman-32"/>
      <use x="604.345703125" xlink:href="#BitstreamVeraSans-Roman-20"/>
     </g>
    </g>
   </g>
   <g id="text_3">
    <g clip-path="url(#p5a67343740)">
     <!-- 204.69.11.60  -->
     <g transform="translate(303.598767073 201.394599127)scale(0.03 -0.03)">
      <use xlink:href="#BitstreamVeraSans-Roman-32"/>
      <use x="63.623046875" xlink:href="#BitstreamVeraSans-Roman-30"/>
      <use x="127.24609375" xlink:href="#BitstreamVeraSans-Roman-34"/>
      <use x="190.869140625" xlink:href="#BitstreamVeraSans-Roman-2e"/>
      <use x="222.65625" xlink:href="#BitstreamVeraSans-Roman-36"/>
      <use x="286.279296875" xlink:href="#BitstreamVeraSans-Roman-39"/>
      <use x="349.90234375" xlink:href="#BitstreamVeraSans-Roman-2e"/>
      <use x="381.689453125" xlink:href="#BitstreamVeraSans-Roman-31"/>
      <use x="445.3125" xlink:href="#BitstreamVeraSans-Roman-31"/>
      <use x="508.935546875" xlink:href="#BitstreamVeraSans-Roman-2e"/>
      <use x="540.72265625" xlink:href="#BitstreamVeraSans-Roman-36"/>
      <use x="604.345703125" xlink:href="#BitstreamVeraSans-Roman-30"/>
      <use x="667.96875" xlink:href="#BitstreamVeraSans-Roman-20"/>
     </g>
    </g>
   </g>
   <g id="text_4">
    <g clip-path="url(#p5a67343740)">
     <!-- 204.69.12.15  -->
     <defs>
      <path d="
M10.7969 72.9062
L49.5156 72.9062
L49.5156 64.5938
L19.8281 64.5938
L19.8281 46.7344
Q21.9688 47.4688 24.1094 47.8281
Q26.2656 48.1875 28.4219 48.1875
Q40.625 48.1875 47.75 41.5
Q54.8906 34.8125 54.8906 23.3906
Q54.8906 11.625 47.5625 5.09375
Q40.2344 -1.42188 26.9062 -1.42188
Q22.3125 -1.42188 17.5469 -0.640625
Q12.7969 0.140625 7.71875 1.70312
L7.71875 11.625
Q12.1094 9.23438 16.7969 8.0625
Q21.4844 6.89062 26.7031 6.89062
Q35.1562 6.89062 40.0781 11.3281
Q45.0156 15.7656 45.0156 23.3906
Q45.0156 31 40.0781 35.4375
Q35.1562 39.8906 26.7031 39.8906
Q22.75 39.8906 18.8125 39.0156
Q14.8906 38.1406 10.7969 36.2812
z
" id="BitstreamVeraSans-Roman-35"/>
     </defs>
     <g transform="translate(354.057646918 245.036099516)scale(0.03 -0.03)">
      <use xlink:href="#BitstreamVeraSans-Roman-32"/>
      <use x="63.623046875" xlink:href="#BitstreamVeraSans-Roman-30"/>
      <use x="127.24609375" xlink:href="#BitstreamVeraSans-Roman-34"/>
      <use x="190.869140625" xlink:href="#BitstreamVeraSans-Roman-2e"/>
      <use x="222.65625" xlink:href="#BitstreamVeraSans-Roman-36"/>
      <use x="286.279296875" xlink:href="#BitstreamVeraSans-Roman-39"/>
      <use x="349.90234375" xlink:href="#BitstreamVeraSans-Roman-2e"/>
      <use x="381.689453125" xlink:href="#BitstreamVeraSans-Roman-31"/>
      <use x="445.3125" xlink:href="#BitstreamVeraSans-Roman-32"/>
      <use x="508.935546875" xlink:href="#BitstreamVeraSans-Roman-2e"/>
      <use x="540.72265625" xlink:href="#BitstreamVeraSans-Roman-31"/>
      <use x="604.345703125" xlink:href="#BitstreamVeraSans-Roman-35"/>
      <use x="667.96875" xlink:href="#BitstreamVeraSans-Roman-20"/>
     </g>
    </g>
   </g>
   <g id="text_5">
    <g clip-path="url(#p5a67343740)">
     <!-- 204.69.11.58  -->
     <defs>
      <path d="
M31.7812 34.625
Q24.75 34.625 20.7188 30.8594
Q16.7031 27.0938 16.7031 20.5156
Q16.7031 13.9219 20.7188 10.1562
Q24.75 6.39062 31.7812 6.39062
Q38.8125 6.39062 42.8594 10.1719
Q46.9219 13.9688 46.9219 20.5156
Q46.9219 27.0938 42.8906 30.8594
Q38.875 34.625 31.7812 34.625
M21.9219 38.8125
Q15.5781 40.375 12.0312 44.7188
Q8.5 49.0781 8.5 55.3281
Q8.5 64.0625 14.7188 69.1406
Q20.9531 74.2188 31.7812 74.2188
Q42.6719 74.2188 48.875 69.1406
Q55.0781 64.0625 55.0781 55.3281
Q55.0781 49.0781 51.5312 44.7188
Q48 40.375 41.7031 38.8125
Q48.8281 37.1562 52.7969 32.3125
Q56.7812 27.4844 56.7812 20.5156
Q56.7812 9.90625 50.3125 4.23438
Q43.8438 -1.42188 31.7812 -1.42188
Q19.7344 -1.42188 13.25 4.23438
Q6.78125 9.90625 6.78125 20.5156
Q6.78125 27.4844 10.7812 32.3125
Q14.7969 37.1562 21.9219 38.8125
M18.3125 54.3906
Q18.3125 48.7344 21.8438 45.5625
Q25.3906 42.3906 31.7812 42.3906
Q38.1406 42.3906 41.7188 45.5625
Q45.3125 48.7344 45.3125 54.3906
Q45.3125 60.0625 41.7188 63.2344
Q38.1406 66.4062 31.7812 66.4062
Q25.3906 66.4062 21.8438 63.2344
Q18.3125 60.0625 18.3125 54.3906" id="BitstreamVeraSans-Roman-38"/>
     </defs>
     <g transform="translate(244.775724022 244.963440624)scale(0.03 -0.03)">
      <use xlink:href="#BitstreamVeraSans-Roman-32"/>
      <use x="63.623046875" xlink:href="#BitstreamVeraSans-Roman-30"/>
      <use x="127.24609375" xlink:href="#BitstreamVeraSans-Roman-34"/>
      <use x="190.869140625" xlink:href="#BitstreamVeraSans-Roman-2e"/>
      <use x="222.65625" xlink:href="#BitstreamVeraSans-Roman-36"/>
      <use x="286.279296875" xlink:href="#BitstreamVeraSans-Roman-39"/>
      <use x="349.90234375" xlink:href="#BitstreamVeraSans-Roman-2e"/>
      <use x="381.689453125" xlink:href="#BitstreamVeraSans-Roman-31"/>
      <use x="445.3125" xlink:href="#BitstreamVeraSans-Roman-31"/>
      <use x="508.935546875" xlink:href="#BitstreamVeraSans-Roman-2e"/>
      <use x="540.72265625" xlink:href="#BitstreamVeraSans-Roman-35"/>
      <use x="604.345703125" xlink:href="#BitstreamVeraSans-Roman-38"/>
      <use x="667.96875" xlink:href="#BitstreamVeraSans-Roman-20"/>
     </g>
    </g>
   </g>
   <g id="text_6">
    <g clip-path="url(#p5a67343740)">
     <!-- GATEWAY -->
     <defs>
      <path d="
M59.5156 10.4062
L59.5156 29.9844
L43.4062 29.9844
L43.4062 38.0938
L69.2812 38.0938
L69.2812 6.78125
Q63.5781 2.73438 56.6875 0.65625
Q49.8125 -1.42188 42 -1.42188
Q24.9062 -1.42188 15.25 8.5625
Q5.60938 18.5625 5.60938 36.375
Q5.60938 54.25 15.25 64.2344
Q24.9062 74.2188 42 74.2188
Q49.125 74.2188 55.5469 72.4531
Q61.9688 70.7031 67.3906 67.2812
L67.3906 56.7812
Q61.9219 61.4219 55.7656 63.7656
Q49.6094 66.1094 42.8281 66.1094
Q29.4375 66.1094 22.7188 58.6406
Q16.0156 51.1719 16.0156 36.375
Q16.0156 21.625 22.7188 14.1562
Q29.4375 6.6875 42.8281 6.6875
Q48.0469 6.6875 52.1406 7.59375
Q56.25 8.5 59.5156 10.4062" id="BitstreamVeraSans-Roman-47"/>
      <path d="
M9.8125 72.9062
L55.9062 72.9062
L55.9062 64.5938
L19.6719 64.5938
L19.6719 43.0156
L54.3906 43.0156
L54.3906 34.7188
L19.6719 34.7188
L19.6719 8.29688
L56.7812 8.29688
L56.7812 0
L9.8125 0
z
" id="BitstreamVeraSans-Roman-45"/>
      <path d="
M-0.296875 72.9062
L61.375 72.9062
L61.375 64.5938
L35.5 64.5938
L35.5 0
L25.5938 0
L25.5938 64.5938
L-0.296875 64.5938
z
" id="BitstreamVeraSans-Roman-54"/>
      <path d="
M34.1875 63.1875
L20.7969 26.9062
L47.6094 26.9062
z

M28.6094 72.9062
L39.7969 72.9062
L67.5781 0
L57.3281 0
L50.6875 18.7031
L17.8281 18.7031
L11.1875 0
L0.78125 0
z
" id="BitstreamVeraSans-Roman-41"/>
      <path d="
M3.32812 72.9062
L13.2812 72.9062
L28.6094 11.2812
L43.8906 72.9062
L54.9844 72.9062
L70.3125 11.2812
L85.5938 72.9062
L95.6094 72.9062
L77.2969 0
L64.8906 0
L49.5156 63.2812
L33.9844 0
L21.5781 0
z
" id="BitstreamVeraSans-Roman-57"/>
      <path d="
M-0.203125 72.9062
L10.4062 72.9062
L30.6094 42.9219
L50.6875 72.9062
L61.2812 72.9062
L35.5 34.7188
L35.5 0
L25.5938 0
L25.5938 34.7188
z
" id="BitstreamVeraSans-Roman-59"/>
     </defs>
     <g transform="translate(306.379064509 253.707508937)scale(0.03 -0.03)">
      <use xlink:href="#BitstreamVeraSans-Roman-47"/>
      <use x="77.490234375" xlink:href="#BitstreamVeraSans-Roman-41"/>
      <use x="138.1484375" xlink:href="#BitstreamVeraSans-Roman-54"/>
      <use x="199.232421875" xlink:href="#BitstreamVeraSans-Roman-45"/>
      <use x="262.416015625" xlink:href="#BitstreamVeraSans-Roman-57"/>
      <use x="355.79296875" xlink:href="#BitstreamVeraSans-Roman-41"/>
      <use x="416.451171875" xlink:href="#BitstreamVeraSans-Roman-59"/>
     </g>
    </g>
   </g>
   <g id="text_7">
    <g clip-path="url(#p5a67343740)">
     <!-- 204.69.12.50  -->
     <g transform="translate(421.503223256 285.815393006)scale(0.03 -0.03)">
      <use xlink:href="#BitstreamVeraSans-Roman-32"/>
      <use x="63.623046875" xlink:href="#BitstreamVeraSans-Roman-30"/>
      <use x="127.24609375" xlink:href="#BitstreamVeraSans-Roman-34"/>
      <use x="190.869140625" xlink:href="#BitstreamVeraSans-Roman-2e"/>
      <use x="222.65625" xlink:href="#BitstreamVeraSans-Roman-36"/>
      <use x="286.279296875" xlink:href="#BitstreamVeraSans-Roman-39"/>
      <use x="349.90234375" xlink:href="#BitstreamVeraSans-Roman-2e"/>
      <use x="381.689453125" xlink:href="#BitstreamVeraSans-Roman-31"/>
      <use x="445.3125" xlink:href="#BitstreamVeraSans-Roman-32"/>
      <use x="508.935546875" xlink:href="#BitstreamVeraSans-Roman-2e"/>
      <use x="540.72265625" xlink:href="#BitstreamVeraSans-Roman-35"/>
      <use x="604.345703125" xlink:href="#BitstreamVeraSans-Roman-30"/>
      <use x="667.96875" xlink:href="#BitstreamVeraSans-Roman-20"/>
     </g>
    </g>
   </g>
   <g id="text_8">
    <g clip-path="url(#p5a67343740)">
     <!-- 204.69.13.3  -->
     <defs>
      <path d="
M40.5781 39.3125
Q47.6562 37.7969 51.625 33
Q55.6094 28.2188 55.6094 21.1875
Q55.6094 10.4062 48.1875 4.48438
Q40.7656 -1.42188 27.0938 -1.42188
Q22.5156 -1.42188 17.6562 -0.515625
Q12.7969 0.390625 7.625 2.20312
L7.625 11.7188
Q11.7188 9.32812 16.5938 8.10938
Q21.4844 6.89062 26.8125 6.89062
Q36.0781 6.89062 40.9375 10.5469
Q45.7969 14.2031 45.7969 21.1875
Q45.7969 27.6406 41.2812 31.2656
Q36.7656 34.9062 28.7188 34.9062
L20.2188 34.9062
L20.2188 43.0156
L29.1094 43.0156
Q36.375 43.0156 40.2344 45.9219
Q44.0938 48.8281 44.0938 54.2969
Q44.0938 59.9062 40.1094 62.9062
Q36.1406 65.9219 28.7188 65.9219
Q24.6562 65.9219 20.0156 65.0312
Q15.375 64.1562 9.8125 62.3125
L9.8125 71.0938
Q15.4375 72.6562 20.3438 73.4375
Q25.25 74.2188 29.5938 74.2188
Q40.8281 74.2188 47.3594 69.1094
Q53.9062 64.0156 53.9062 55.3281
Q53.9062 49.2656 50.4375 45.0938
Q46.9688 40.9219 40.5781 39.3125" id="BitstreamVeraSans-Roman-33"/>
     </defs>
     <g transform="translate(325.985357054 252.605972707)scale(0.03 -0.03)">
      <use xlink:href="#BitstreamVeraSans-Roman-32"/>
      <use x="63.623046875" xlink:href="#BitstreamVeraSans-Roman-30"/>
      <use x="127.24609375" xlink:href="#BitstreamVeraSans-Roman-34"/>
      <use x="190.869140625" xlink:href="#BitstreamVeraSans-Roman-2e"/>
      <use x="222.65625" xlink:href="#BitstreamVeraSans-Roman-36"/>
      <use x="286.279296875" xlink:href="#BitstreamVeraSans-Roman-39"/>
      <use x="349.90234375" xlink:href="#BitstreamVeraSans-Roman-2e"/>
      <use x="381.689453125" xlink:href="#BitstreamVeraSans-Roman-31"/>
      <use x="445.3125" xlink:href="#BitstreamVeraSans-Roman-33"/>
      <use x="508.935546875" xlink:href="#BitstreamVeraSans-Roman-2e"/>
      <use x="540.72265625" xlink:href="#BitstreamVeraSans-Roman-33"/>
      <use x="604.345703125" xlink:href="#BitstreamVeraSans-Roman-20"/>
     </g>
    </g>
   </g>
   <g id="text_9">
    <g clip-path="url(#p5a67343740)">
     <!-- 204.69.13.102  -->
     <g transform="translate(368.814736488 283.074370295)scale(0.03 -0.03)">
      <use xlink:href="#BitstreamVeraSans-Roman-32"/>
      <use x="63.623046875" xlink:href="#BitstreamVeraSans-Roman-30"/>
      <use x="127.24609375" xlink:href="#BitstreamVeraSans-Roman-34"/>
      <use x="190.869140625" xlink:href="#BitstreamVeraSans-Roman-2e"/>
      <use x="222.65625" xlink:href="#BitstreamVeraSans-Roman-36"/>
      <use x="286.279296875" xlink:href="#BitstreamVeraSans-Roman-39"/>
      <use x="349.90234375" xlink:href="#BitstreamVeraSans-Roman-2e"/>
      <use x="381.689453125" xlink:href="#BitstreamVeraSans-Roman-31"/>
      <use x="445.3125" xlink:href="#BitstreamVeraSans-Roman-33"/>
      <use x="508.935546875" xlink:href="#BitstreamVeraSans-Roman-2e"/>
      <use x="540.72265625" xlink:href="#BitstreamVeraSans-Roman-31"/>
      <use x="604.345703125" xlink:href="#BitstreamVeraSans-Roman-30"/>
      <use x="667.96875" xlink:href="#BitstreamVeraSans-Roman-32"/>
      <use x="731.591796875" xlink:href="#BitstreamVeraSans-Roman-20"/>
     </g>
    </g>
   </g>
   <g id="text_10">
    <g clip-path="url(#p5a67343740)">
     <!-- 204.69.11.22  -->
     <g transform="translate(286.198751102 183.948752125)scale(0.03 -0.03)">
      <use xlink:href="#BitstreamVeraSans-Roman-32"/>
      <use x="63.623046875" xlink:href="#BitstreamVeraSans-Roman-30"/>
      <use x="127.24609375" xlink:href="#BitstreamVeraSans-Roman-34"/>
      <use x="190.869140625" xlink:href="#BitstreamVeraSans-Roman-2e"/>
      <use x="222.65625" xlink:href="#BitstreamVeraSans-Roman-36"/>
      <use x="286.279296875" xlink:href="#BitstreamVeraSans-Roman-39"/>
      <use x="349.90234375" xlink:href="#BitstreamVeraSans-Roman-2e"/>
      <use x="381.689453125" xlink:href="#BitstreamVeraSans-Roman-31"/>
      <use x="445.3125" xlink:href="#BitstreamVeraSans-Roman-31"/>
      <use x="508.935546875" xlink:href="#BitstreamVeraSans-Roman-2e"/>
      <use x="540.72265625" xlink:href="#BitstreamVeraSans-Roman-32"/>
      <use x="604.345703125" xlink:href="#BitstreamVeraSans-Roman-32"/>
      <use x="667.96875" xlink:href="#BitstreamVeraSans-Roman-20"/>
     </g>
    </g>
   </g>
   <g id="text_11">
    <g clip-path="url(#p5a67343740)">
     <!-- 204.69.12.16  -->
     <g transform="translate(318.446102601 229.138626961)scale(0.03 -0.03)">
      <use xlink:href="#BitstreamVeraSans-Roman-32"/>
      <use x="63.623046875" xlink:href="#BitstreamVeraSans-Roman-30"/>
      <use x="127.24609375" xlink:href="#BitstreamVeraSans-Roman-34"/>
      <use x="190.869140625" xlink:href="#BitstreamVeraSans-Roman-2e"/>
      <use x="222.65625" xlink:href="#BitstreamVeraSans-Roman-36"/>
      <use x="286.279296875" xlink:href="#BitstreamVeraSans-Roman-39"/>
      <use x="349.90234375" xlink:href="#BitstreamVeraSans-Roman-2e"/>
      <use x="381.689453125" xlink:href="#BitstreamVeraSans-Roman-31"/>
      <use x="445.3125" xlink:href="#BitstreamVeraSans-Roman-32"/>
      <use x="508.935546875" xlink:href="#BitstreamVeraSans-Roman-2e"/>
      <use x="540.72265625" xlink:href="#BitstreamVeraSans-Roman-31"/>
      <use x="604.345703125" xlink:href="#BitstreamVeraSans-Roman-36"/>
      <use x="667.96875" xlink:href="#BitstreamVeraSans-Roman-20"/>
     </g>
    </g>
   </g>
   <g id="text_12">
    <g clip-path="url(#p5a67343740)">
     <!-- 204.69.11.21  -->
     <g transform="translate(281.71319351 233.336121486)scale(0.03 -0.03)">
      <use xlink:href="#BitstreamVeraSans-Roman-32"/>
      <use x="63.623046875" xlink:href="#BitstreamVeraSans-Roman-30"/>
      <use x="127.24609375" xlink:href="#BitstreamVeraSans-Roman-34"/>
      <use x="190.869140625" xlink:href="#BitstreamVeraSans-Roman-2e"/>
      <use x="222.65625" xlink:href="#BitstreamVeraSans-Roman-36"/>
      <use x="286.279296875" xlink:href="#BitstreamVeraSans-Roman-39"/>
      <use x="349.90234375" xlink:href="#BitstreamVeraSans-Roman-2e"/>
      <use x="381.689453125" xlink:href="#BitstreamVeraSans-Roman-31"/>
      <use x="445.3125" xlink:href="#BitstreamVeraSans-Roman-31"/>
      <use x="508.935546875" xlink:href="#BitstreamVeraSans-Roman-2e"/>
      <use x="540.72265625" xlink:href="#BitstreamVeraSans-Roman-32"/>
      <use x="604.345703125" xlink:href="#BitstreamVeraSans-Roman-31"/>
      <use x="667.96875" xlink:href="#BitstreamVeraSans-Roman-20"/>
     </g>
    </g>
   </g>
   <g id="text_13">
    <g clip-path="url(#p5a67343740)">
     <!-- 204.69.12.10  -->
     <g transform="translate(279.196430705 260.203918535)scale(0.03 -0.03)">
      <use xlink:href="#BitstreamVeraSans-Roman-32"/>
      <use x="63.623046875" xlink:href="#BitstreamVeraSans-Roman-30"/>
      <use x="127.24609375" xlink:href="#BitstreamVeraSans-Roman-34"/>
      <use x="190.869140625" xlink:href="#BitstreamVeraSans-Roman-2e"/>
      <use x="222.65625" xlink:href="#BitstreamVeraSans-Roman-36"/>
      <use x="286.279296875" xlink:href="#BitstreamVeraSans-Roman-39"/>
      <use x="349.90234375" xlink:href="#BitstreamVeraSans-Roman-2e"/>
      <use x="381.689453125" xlink:href="#BitstreamVeraSans-Roman-31"/>
      <use x="445.3125" xlink:href="#BitstreamVeraSans-Roman-32"/>
      <use x="508.935546875" xlink:href="#BitstreamVeraSans-Roman-2e"/>
      <use x="540.72265625" xlink:href="#BitstreamVeraSans-Roman-31"/>
      <use x="604.345703125" xlink:href="#BitstreamVeraSans-Roman-30"/>
      <use x="667.96875" xlink:href="#BitstreamVeraSans-Roman-20"/>
     </g>
    </g>
   </g>
  </g>
 </g>
 <defs>
  <clipPath id="p5a67343740">
   <rect height="432.0" width="576.0" x="0.0" y="0.0"/>
  </clipPath>
 </defs>
</svg>
