<?xml version="1.0" encoding="utf-8" standalone="no"?>
<!DOCTYPE svg PUBLIC "-//W3C//DTD SVG 1.1//EN"
  "http://www.w3.org/Graphics/SVG/1.1/DTD/svg11.dtd">
<!-- Created with matplotlib (http://matplotlib.org/) -->
<svg height="432pt" version="1.1" viewBox="0 0 576 432" width="576pt" xmlns="http://www.w3.org/2000/svg" xmlns:xlink="http://www.w3.org/1999/xlink">
 <defs>
  <style type="text/css">
*{stroke-linecap:butt;stroke-linejoin:round;}
  </style>
 </defs>
 <g id="figure_1">
  <g id="patch_1">
   <path d="
M0 432
L576 432
L576 0
L0 0
z
" style="fill:#ffffff;"/>
  </g>
  <g id="axes_1">
   <g id="LineCollection_1">
    <defs>
     <path d="
M82.2857 -54
L247.252 -181.248" id="C0_0_1bf69252f4"/>
     <path d="
M284.107 -260.415
L324.889 -235.597" id="C0_1_647c4d076e"/>
     <path d="
M284.107 -260.415
L249.062 -236.219" id="C0_2_8b2bfe9f9c"/>
     <path d="
M249.062 -236.219
L247.252 -181.248" id="C0_3_907ae4eaec"/>
     <path d="
M493.714 -385.047
L415.379 -314.498" id="C0_4_35238fb46a"/>
     <path d="
M493.714 -385.047
L363.407 -279.958" id="C0_5_176677751b"/>
     <path d="
M383.049 -321.761
L363.407 -279.958" id="C0_6_e930a7bc6b"/>
     <path d="
M259.787 -162.89
L247.252 -181.248" id="C0_7_9345aea6c2"/>
     <path d="
M259.787 -162.89
L282.867 -193.72" id="C0_8_bd7002aeb7"/>
     <path d="
M277.378 -123.22
L290.594 -173.385" id="C0_9_a540b35bc3"/>
     <path d="
M277.378 -123.22
L248.062 -128.524" id="C0_a_79289361b4"/>
     <path d="
M247.252 -181.248
L248.062 -128.524" id="C0_b_d5630a9f57"/>
     <path d="
M247.252 -181.248
L324.889 -235.597" id="C0_c_81b4e69d8f"/>
     <path d="
M247.252 -181.248
L247.252 -181.248" id="C0_d_04856cec91"/>
     <path d="
M247.252 -181.248
L290.594 -173.385" id="C0_e_81e5d7abe4"/>
     <path d="
M247.252 -181.248
L282.867 -193.72" id="C0_f_49b3d7e6e2"/>
     <path d="
M247.252 -181.248
L280.083 -219.073" id="C0_10_ea04ceb4d7"/>
     <path d="
M247.252 -181.248
L304.432 -200.016" id="C0_11_502f13d6b6"/>
     <path d="
M247.252 -181.248
L363.407 -279.958" id="C0_12_8f328a42fd"/>
     <path d="
M247.252 -181.248
L208.8 -171.584" id="C0_13_ba6106ad23"/>
     <path d="
M247.252 -181.248
L306.116 -238.749" id="C0_14_758ad716fc"/>
     <path d="
M360.518 -226.14
L324.889 -235.597" id="C0_15_c2c7ea6f71"/>
     <path d="
M360.518 -226.14
L342.313 -209.054" id="C0_16_5352010554"/>
     <path d="
M282.867 -193.72
L324.889 -235.597" id="C0_17_fe0e8e3e01"/>
     <path d="
M282.867 -193.72
L290.594 -173.385" id="C0_18_2045e8e224"/>
     <path d="
M290.594 -173.385
L324.889 -235.597" id="C0_19_35a0248853"/>
     <path d="
M304.432 -200.016
L342.313 -209.054" id="C0_1a_b95a3aac04"/>
     <path d="
M304.432 -200.016
L324.889 -235.597" id="C0_1b_99a227ff4c"/>
     <path d="
M280.083 -219.073
L324.889 -235.597" id="C0_1c_87ef355507"/>
     <path d="
M415.379 -314.498
L324.889 -235.597" id="C0_1d_5564cc9830"/>
     <path d="
M363.407 -279.958
L324.889 -235.597" id="C0_1e_d206e9a5dd"/>
     <path d="
M363.407 -279.958
L363.407 -279.958" id="C0_1f_9432e20cfe"/>
     <path d="
M363.407 -279.958
L306.116 -238.749" id="C0_20_ec13f353a3"/>
     <path d="
M324.889 -235.597
L324.889 -235.597" id="C0_21_bdb0b74b08"/>
     <path d="
M324.889 -235.597
L342.313 -209.054" id="C0_22_f10d0a475a"/>
    </defs>
    <g clip-path="url(#p5a67343740)">
     <use style="fill:none;stroke:#000000;stroke-width:0.1;" x="0.0" xlink:href="#C0_0_1bf69252f4" y="432.0"/>
    </g>
    <g clip-path="url(#p5a67343740)">
     <use style="fill:none;stroke:#000000;stroke-width:0.1;" x="0.0" xlink:href="#C0_1_647c4d076e" y="432.0"/>
    </g>
    <g clip-path="url(#p5a67343740)">
     <use style="fill:none;stroke:#000000;stroke-width:0.1;" x="0.0" xlink:href="#C0_2_8b2bfe9f9c" y="432.0"/>
    </g>
    <g clip-path="url(#p5a67343740)">
     <use style="fill:none;stroke:#000000;stroke-width:0.1;" x="0.0" xlink:href="#C0_3_907ae4eaec" y="432.0"/>
    </g>
    <g clip-path="url(#p5a67343740)">
     <use style="fill:none;stroke:#000000;stroke-width:0.1;" x="0.0" xlink:href="#C0_4_35238fb46a" y="432.0"/>
    </g>
    <g clip-path="url(#p5a67343740)">
     <use style="fill:none;stroke:#000000;stroke-width:0.1;" x="0.0" xlink:href="#C0_5_176677751b" y="432.0"/>
    </g>
    <g clip-path="url(#p5a67343740)">
     <use style="fill:none;stroke:#000000;stroke-width:0.1;" x="0.0" xlink:href="#C0_6_e930a7bc6b" y="432.0"/>
    </g>
    <g clip-path="url(#p5a67343740)">
     <use style="fill:none;stroke:#000000;stroke-width:0.1;" x="0.0" xlink:href="#C0_7_9345aea6c2" y="432.0"/>
    </g>
    <g clip-path="url(#p5a67343740)">
     <use style="fill:none;stroke:#000000;stroke-width:0.1;" x="0.0" xlink:href="#C0_8_bd7002aeb7" y="432.0"/>
    </g>
    <g clip-path="url(#p5a67343740)">
     <use style="fill:none;stroke:#000000;stroke-width:0.1;" x="0.0" xlink:href="#C0_9_a540b35bc3" y="432.0"/>
    </g>
    <g clip-path="url(#p5a67343740)">
     <use style="fill:none;stroke:#000000;stroke-width:0.1;" x="0.0" xlink:href="#C0_a_79289361b4" y="432.0"/>
    </g>
    <g clip-path="url(#p5a67343740)">
     <use style="fill:none;stroke:#000000;stroke-width:0.1;" x="0.0" xlink:href="#C0_b_d5630a9f57" y="432.0"/>
    </g>
    <g clip-path="url(#p5a67343740)">
     <use style="fill:none;stroke:#000000;stroke-width:0.1;" x="0.0" xlink:href="#C0_c_81b4e69d8f" y="432.0"/>
    </g>
    <g clip-path="url(#p5a67343740)">
     <use style="fill:none;stroke:#000000;stroke-width:0.1;" x="0.0" xlink:href="#C0_d_04856cec91" y="432.0"/>
    </g>
    <g clip-path="url(#p5a67343740)">
     <use style="fill:none;stroke:#000000;stroke-width:0.1;" x="0.0" xlink:href="#C0_e_81e5d7abe4" y="432.0"/>
    </g>
    <g clip-path="url(#p5a67343740)">
     <use style="fill:none;stroke:#000000;stroke-width:0.1;" x="0.0" xlink:href="#C0_f_49b3d7e6e2" y="432.0"/>
    </g>
    <g clip-path="url(#p5a67343740)">
     <use style="fill:none;stroke:#000000;stroke-width:0.1;" x="0.0" xlink:href="#C0_10_ea04ceb4d7" y="432.0"/>
    </g>
    <g clip-path="url(#p5a67343740)">
     <use style="fill:none;stroke:#000000;stroke-width:0.1;" x="0.0" xlink:href="#C0_11_502f13d6b6" y="432.0"/>
    </g>
    <g clip-path="url(#p5a67343740)">
     <use style="fill:none;stroke:#000000;stroke-width:0.1;" x="0.0" xlink:href="#C0_12_8f328a42fd" y="432.0"/>
    </g>
    <g clip-path="url(#p5a67343740)">
     <use style="fill:none;stroke:#000000;stroke-width:0.1;" x="0.0" xlink:href="#C0_13_ba6106ad23" y="432.0"/>
    </g>
    <g clip-path="url(#p5a67343740)">
     <use style="fill:none;stroke:#000000;stroke-width:0.1;" x="0.0" xlink:href="#C0_14_758ad716fc" y="432.0"/>
    </g>
    <g clip-path="url(#p5a67343740)">
     <use style="fill:none;stroke:#000000;stroke-width:0.1;" x="0.0" xlink:href="#C0_15_c2c7ea6f71" y="432.0"/>
    </g>
    <g clip-path="url(#p5a67343740)">
     <use style="fill:none;stroke:#000000;stroke-width:0.1;" x="0.0" xlink:href="#C0_16_5352010554" y="432.0"/>
    </g>
    <g clip-path="url(#p5a67343740)">
     <use style="fill:none;stroke:#000000;stroke-width:0.1;" x="0.0" xlink:href="#C0_17_fe0e8e3e01" y="432.0"/>
    </g>
    <g clip-path="url(#p5a67343740)">
     <use style="fill:none;stroke:#000000;stroke-width:0.1;" x="0.0" xlink:href="#C0_18_2045e8e224" y="432.0"/>
    </g>
    <g clip-path="url(#p5a67343740)">
     <use style="fill:none;stroke:#000000;stroke-width:0.1;" x="0.0" xlink:href="#C0_19_35a0248853" y="432.0"/>
    </g>
    <g clip-path="url(#p5a67343740)">
     <use style="fill:none;stroke:#000000;stroke-width:0.1;" x="0.0" xlink:href="#C0_1a_b95a3aac04" y="432.0"/>
    </g>
    <g clip-path="url(#p5a67343740)">
     <use style="fill:none;stroke:#000000;stroke-width:0.1;" x="0.0" xlink:href="#C0_1b_99a227ff4c" y="432.0"/>
    </g>
    <g clip-path="url(#p5a67343740)">
     <use style="fill:none;stroke:#000000;stroke-width:0.1;" x="0.0" xlink:href="#C0_1c_87ef355507" y="432.0"/>
    </g>
    <g clip-path="url(#p5a67343740)">
     <use style="fill:none;stroke:#000000;stroke-width:0.1;" x="0.0" xlink:href="#C0_1d_5564cc9830" y="432.0"/>
    </g>
    <g clip-path="url(#p5a67343740)">
     <use style="fill:none;stroke:#000000;stroke-width:0.1;" x="0.0" xlink:href="#C0_1e_d206e9a5dd" y="432.0"/>
    </g>
    <g clip-path="url(#p5a67343740)">
     <use style="fill:none;stroke:#000000;stroke-width:0.1;" x="0.0" xlink:href="#C0_1f_9432e20cfe" y="432.0"/>
    </g>
    <g clip-path="url(#p5a67343740)">
     <use style="fill:none;stroke:#000000;stroke-width:0.1;" x="0.0" xlink:href="#C0_20_ec13f353a3" y="432.0"/>
    </g>
    <g clip-path="url(#p5a67343740)">
     <use style="fill:none;stroke:#000000;stroke-width:0.1;" x="0.0" xlink:href="#C0_21_bdb0b74b08" y="432.0"/>
    </g>
    <g clip-path="url(#p5a67343740)">
     <use style="fill:none;stroke:#000000;stroke-width:0.1;" x="0.0" xlink:href="#C0_22_f10d0a475a" y="432.0"/>
    </g>
   </g>
   <g id="PathCollection_1">
    <defs>
     <path d="
M0 1.93649
C0.513564 1.93649 1.00616 1.73245 1.36931 1.36931
C1.73245 1.00616 1.93649 0.513564 1.93649 0
C1.93649 -0.513564 1.73245 -1.00616 1.36931 -1.36931
C1.00616 -1.73245 0.513564 -1.93649 0 -1.93649
C-0.513564 -1.93649 -1.00616 -1.73245 -1.36931 -1.36931
C-1.73245 -1.00616 -1.93649 -0.513564 -1.93649 0
C-1.93649 0.513564 -1.73245 1.00616 -1.36931 1.36931
C-1.00616 1.73245 -0.513564 1.93649 0 1.93649
z
" id="C1_0_43e184535d"/>
     <path d="
M0 2.73861
C0.726289 2.73861 1.42293 2.45006 1.93649 1.93649
C2.45006 1.42293 2.73861 0.726289 2.73861 0
C2.73861 -0.726289 2.45006 -1.42293 1.93649 -1.93649
C1.42293 -2.45006 0.726289 -2.73861 0 -2.73861
C-0.726289 -2.73861 -1.42293 -2.45006 -1.93649 -1.93649
C-2.45006 -1.42293 -2.73861 -0.726289 -2.73861 0
C-2.73861 0.726289 -2.45006 1.42293 -1.93649 1.93649
C-1.42293 2.45006 -0.726289 2.73861 0 2.73861
z
" id="C1_1_976255c095"/>
     <path d="
M0 2.73861
C0.726289 2.73861 1.42293 2.45006 1.93649 1.93649
C2.45006 1.42293 2.73861 0.726289 2.73861 0
C2.73861 -0.726289 2.45006 -1.42293 1.93649 -1.93649
C1.42293 -2.45006 0.726289 -2.73861 0 -2.73861
C-0.726289 -2.73861 -1.42293 -2.45006 -1.93649 -1.93649
C-2.45006 -1.42293 -2.73861 -0.726289 -2.73861 0
C-2.73861 0.726289 -2.45006 1.42293 -1.93649 1.93649
C-1.42293 2.45006 -0.726289 2.73861 0 2.73861
z
" id="C1_2_976255c095"/>
     <path d="
M0 2.73861
C0.726289 2.73861 1.42293 2.45006 1.93649 1.93649
C2.45006 1.42293 2.73861 0.726289 2.73861 0
C2.73861 -0.726289 2.45006 -1.42293 1.93649 -1.93649
C1.42293 -2.45006 0.726289 -2.73861 0 -2.73861
C-0.726289 -2.73861 -1.42293 -2.45006 -1.93649 -1.93649
C-2.45006 -1.42293 -2.73861 -0.726289 -2.73861 0
C-2.73861 0.726289 -2.45006 1.42293 -1.93649 1.93649
C-1.42293 2.45006 -0.726289 2.73861 0 2.73861
z
" id="C1_3_976255c095"/>
     <path d="
M0 1.93649
C0.513564 1.93649 1.00616 1.73245 1.36931 1.36931
C1.73245 1.00616 1.93649 0.513564 1.93649 0
C1.93649 -0.513564 1.73245 -1.00616 1.36931 -1.36931
C1.00616 -1.73245 0.513564 -1.93649 0 -1.93649
C-0.513564 -1.93649 -1.00616 -1.73245 -1.36931 -1.36931
C-1.73245 -1.00616 -1.93649 -0.513564 -1.93649 0
C-1.93649 0.513564 -1.73245 1.00616 -1.36931 1.36931
C-1.00616 1.73245 -0.513564 1.93649 0 1.93649
z
" id="C1_4_43e184535d"/>
     <path d="
M0 2.73861
C0.726289 2.73861 1.42293 2.45006 1.93649 1.93649
C2.45006 1.42293 2.73861 0.726289 2.73861 0
C2.73861 -0.726289 2.45006 -1.42293 1.93649 -1.93649
C1.42293 -2.45006 0.726289 -2.73861 0 -2.73861
C-0.726289 -2.73861 -1.42293 -2.45006 -1.93649 -1.93649
C-2.45006 -1.42293 -2.73861 -0.726289 -2.73861 0
C-2.73861 0.726289 -2.45006 1.42293 -1.93649 1.93649
C-1.42293 2.45006 -0.726289 2.73861 0 2.73861
z
" id="C1_5_976255c095"/>
     <path d="
M0 2.73861
C0.726289 2.73861 1.42293 2.45006 1.93649 1.93649
C2.45006 1.42293 2.73861 0.726289 2.73861 0
C2.73861 -0.726289 2.45006 -1.42293 1.93649 -1.93649
C1.42293 -2.45006 0.726289 -2.73861 0 -2.73861
C-0.726289 -2.73861 -1.42293 -2.45006 -1.93649 -1.93649
C-2.45006 -1.42293 -2.73861 -0.726289 -2.73861 0
C-2.73861 0.726289 -2.45006 1.42293 -1.93649 1.93649
C-1.42293 2.45006 -0.726289 2.73861 0 2.73861
z
" id="C1_6_976255c095"/>
     <path d="
M0 6.98212
C1.85168 6.98212 3.62777 6.24644 4.9371 4.9371
C6.24644 3.62777 6.98212 1.85168 6.98212 0
C6.98212 -1.85168 6.24644 -3.62777 4.9371 -4.9371
C3.62777 -6.24644 1.85168 -6.98212 0 -6.98212
C-1.85168 -6.98212 -3.62777 -6.24644 -4.9371 -4.9371
C-6.24644 -3.62777 -6.98212 -1.85168 -6.98212 0
C-6.98212 1.85168 -6.24644 3.62777 -4.9371 4.9371
C-3.62777 6.24644 -1.85168 6.98212 0 6.98212
z
" id="C1_7_9a386d1045"/>
     <path d="
M0 2.73861
C0.726289 2.73861 1.42293 2.45006 1.93649 1.93649
C2.45006 1.42293 2.73861 0.726289 2.73861 0
C2.73861 -0.726289 2.45006 -1.42293 1.93649 -1.93649
C1.42293 -2.45006 0.726289 -2.73861 0 -2.73861
C-0.726289 -2.73861 -1.42293 -2.45006 -1.93649 -1.93649
C-2.45006 -1.42293 -2.73861 -0.726289 -2.73861 0
C-2.73861 0.726289 -2.45006 1.42293 -1.93649 1.93649
C-1.42293 2.45006 -0.726289 2.73861 0 2.73861
z
" id="C1_8_976255c095"/>
     <path d="
M0 3.87298
C1.02713 3.87298 2.01232 3.4649 2.73861 2.73861
C3.4649 2.01232 3.87298 1.02713 3.87298 0
C3.87298 -1.02713 3.4649 -2.01232 2.73861 -2.73861
C2.01232 -3.4649 1.02713 -3.87298 0 -3.87298
C-1.02713 -3.87298 -2.01232 -3.4649 -2.73861 -2.73861
C-3.4649 -2.01232 -3.87298 -1.02713 -3.87298 0
C-3.87298 1.02713 -3.4649 2.01232 -2.73861 2.73861
C-2.01232 3.4649 -1.02713 3.87298 0 3.87298
z
" id="C1_9_5009dfc2f8"/>
     <path d="
M0 3.87298
C1.02713 3.87298 2.01232 3.4649 2.73861 2.73861
C3.4649 2.01232 3.87298 1.02713 3.87298 0
C3.87298 -1.02713 3.4649 -2.01232 2.73861 -2.73861
C2.01232 -3.4649 1.02713 -3.87298 0 -3.87298
C-1.02713 -3.87298 -2.01232 -3.4649 -2.73861 -2.73861
C-3.4649 -2.01232 -3.87298 -1.02713 -3.87298 0
C-3.87298 1.02713 -3.4649 2.01232 -2.73861 2.73861
C-2.01232 3.4649 -1.02713 3.87298 0 3.87298
z
" id="C1_a_5009dfc2f8"/>
     <path d="
M0 3.3541
C0.889518 3.3541 1.74272 3.00069 2.37171 2.37171
C3.00069 1.74272 3.3541 0.889518 3.3541 0
C3.3541 -0.889518 3.00069 -1.74272 2.37171 -2.37171
C1.74272 -3.00069 0.889518 -3.3541 0 -3.3541
C-0.889518 -3.3541 -1.74272 -3.00069 -2.37171 -2.37171
C-3.00069 -1.74272 -3.3541 -0.889518 -3.3541 0
C-3.3541 0.889518 -3.00069 1.74272 -2.37171 2.37171
C-1.74272 3.00069 -0.889518 3.3541 0 3.3541
z
" id="C1_b_bfe955e8a6"/>
     <path d="
M0 2.73861
C0.726289 2.73861 1.42293 2.45006 1.93649 1.93649
C2.45006 1.42293 2.73861 0.726289 2.73861 0
C2.73861 -0.726289 2.45006 -1.42293 1.93649 -1.93649
C1.42293 -2.45006 0.726289 -2.73861 0 -2.73861
C-0.726289 -2.73861 -1.42293 -2.45006 -1.93649 -1.93649
C-2.45006 -1.42293 -2.73861 -0.726289 -2.73861 0
C-2.73861 0.726289 -2.45006 1.42293 -1.93649 1.93649
C-1.42293 2.45006 -0.726289 2.73861 0 2.73861
z
" id="C1_c_976255c095"/>
     <path d="
M0 2.73861
C0.726289 2.73861 1.42293 2.45006 1.93649 1.93649
C2.45006 1.42293 2.73861 0.726289 2.73861 0
C2.73861 -0.726289 2.45006 -1.42293 1.93649 -1.93649
C1.42293 -2.45006 0.726289 -2.73861 0 -2.73861
C-0.726289 -2.73861 -1.42293 -2.45006 -1.93649 -1.93649
C-2.45006 -1.42293 -2.73861 -0.726289 -2.73861 0
C-2.73861 0.726289 -2.45006 1.42293 -1.93649 1.93649
C-1.42293 2.45006 -0.726289 2.73861 0 2.73861
z
" id="C1_d_976255c095"/>
     <path d="
M0 4.74342
C1.25797 4.74342 2.46458 4.24362 3.3541 3.3541
C4.24362 2.46458 4.74342 1.25797 4.74342 0
C4.74342 -1.25797 4.24362 -2.46458 3.3541 -3.3541
C2.46458 -4.24362 1.25797 -4.74342 0 -4.74342
C-1.25797 -4.74342 -2.46458 -4.24362 -3.3541 -3.3541
C-4.24362 -2.46458 -4.74342 -1.25797 -4.74342 0
C-4.74342 1.25797 -4.24362 2.46458 -3.3541 3.3541
C-2.46458 4.24362 -1.25797 4.74342 0 4.74342
z
" id="C1_e_72e6d5a2bf"/>
     <path d="
M0 2.73861
C0.726289 2.73861 1.42293 2.45006 1.93649 1.93649
C2.45006 1.42293 2.73861 0.726289 2.73861 0
C2.73861 -0.726289 2.45006 -1.42293 1.93649 -1.93649
C1.42293 -2.45006 0.726289 -2.73861 0 -2.73861
C-0.726289 -2.73861 -1.42293 -2.45006 -1.93649 -1.93649
C-2.45006 -1.42293 -2.73861 -0.726289 -2.73861 0
C-2.73861 0.726289 -2.45006 1.42293 -1.93649 1.93649
C-1.42293 2.45006 -0.726289 2.73861 0 2.73861
z
" id="C1_f_976255c095"/>
     <path d="
M0 2.73861
C0.726289 2.73861 1.42293 2.45006 1.93649 1.93649
C2.45006 1.42293 2.73861 0.726289 2.73861 0
C2.73861 -0.726289 2.45006 -1.42293 1.93649 -1.93649
C1.42293 -2.45006 0.726289 -2.73861 0 -2.73861
C-0.726289 -2.73861 -1.42293 -2.45006 -1.93649 -1.93649
C-2.45006 -1.42293 -2.73861 -0.726289 -2.73861 0
C-2.73861 0.726289 -2.45006 1.42293 -1.93649 1.93649
C-1.42293 2.45006 -0.726289 2.73861 0 2.73861
z
" id="C1_10_976255c095"/>
     <path d="
M0 6.42262
C1.7033 6.42262 3.33706 5.74589 4.54148 4.54148
C5.74589 3.33706 6.42262 1.7033 6.42262 0
C6.42262 -1.7033 5.74589 -3.33706 4.54148 -4.54148
C3.33706 -5.74589 1.7033 -6.42262 0 -6.42262
C-1.7033 -6.42262 -3.33706 -5.74589 -4.54148 -4.54148
C-5.74589 -3.33706 -6.42262 -1.7033 -6.42262 0
C-6.42262 1.7033 -5.74589 3.33706 -4.54148 4.54148
C-3.33706 5.74589 -1.7033 6.42262 0 6.42262
z
" id="C1_11_739a1130b9"/>
     <path d="
M0 1.93649
C0.513564 1.93649 1.00616 1.73245 1.36931 1.36931
C1.73245 1.00616 1.93649 0.513564 1.93649 0
C1.93649 -0.513564 1.73245 -1.00616 1.36931 -1.36931
C1.00616 -1.73245 0.513564 -1.93649 0 -1.93649
C-0.513564 -1.93649 -1.00616 -1.73245 -1.36931 -1.36931
C-1.73245 -1.00616 -1.93649 -0.513564 -1.93649 0
C-1.93649 0.513564 -1.73245 1.00616 -1.36931 1.36931
C-1.00616 1.73245 -0.513564 1.93649 0 1.93649
z
" id="C1_12_43e184535d"/>
     <path d="
M0 3.3541
C0.889518 3.3541 1.74272 3.00069 2.37171 2.37171
C3.00069 1.74272 3.3541 0.889518 3.3541 0
C3.3541 -0.889518 3.00069 -1.74272 2.37171 -2.37171
C1.74272 -3.00069 0.889518 -3.3541 0 -3.3541
C-0.889518 -3.3541 -1.74272 -3.00069 -2.37171 -2.37171
C-3.00069 -1.74272 -3.3541 -0.889518 -3.3541 0
C-3.3541 0.889518 -3.00069 1.74272 -2.37171 2.37171
C-1.74272 3.00069 -0.889518 3.3541 0 3.3541
z
" id="C1_13_bfe955e8a6"/>
    </defs>
    <g clip-path="url(#p5a67343740)">
     <use style="fill:#ff5005;stroke:#000000;" x="82.2857142857" xlink:href="#C1_0_43e184535d" y="378.0"/>
    </g>
    <g clip-path="url(#p5a67343740)">
     <use style="fill:#ffffff;stroke:#000000;" x="284.107454109" xlink:href="#C1_1_976255c095" y="171.58494492"/>
    </g>
    <g clip-path="url(#p5a67343740)">
     <use style="fill:#ffffff;stroke:#000000;" x="249.062462091" xlink:href="#C1_2_976255c095" y="195.78116228"/>
    </g>
    <g clip-path="url(#p5a67343740)">
     <use style="fill:#ffffff;stroke:#000000;" x="493.714285714" xlink:href="#C1_3_976255c095" y="46.9526237408"/>
    </g>
    <g clip-path="url(#p5a67343740)">
     <use style="fill:#ffffff;stroke:#000000;" x="383.049326986" xlink:href="#C1_4_43e184535d" y="110.23852554"/>
    </g>
    <g clip-path="url(#p5a67343740)">
     <use style="fill:#ff5005;stroke:#000000;" x="259.787292001" xlink:href="#C1_5_976255c095" y="269.109631591"/>
    </g>
    <g clip-path="url(#p5a67343740)">
     <use style="fill:#ff5005;stroke:#000000;" x="277.377897541" xlink:href="#C1_6_976255c095" y="308.779516274"/>
    </g>
    <g clip-path="url(#p5a67343740)">
     <use style="fill:#0075dc;stroke:#000000;" x="247.251992318" xlink:href="#C1_7_9a386d1045" y="250.75227947"/>
    </g>
    <g clip-path="url(#p5a67343740)">
     <use style="fill:#ffffff;stroke:#000000;" x="360.518080426" xlink:href="#C1_8_976255c095" y="205.859777399"/>
    </g>
    <g clip-path="url(#p5a67343740)">
     <use style="fill:#ffffff;stroke:#000000;" x="282.8668077" xlink:href="#C1_9_5009dfc2f8" y="238.279783913"/>
    </g>
    <g clip-path="url(#p5a67343740)">
     <use style="fill:#ffffff;stroke:#000000;" x="290.593599154" xlink:href="#C1_a_5009dfc2f8" y="258.615470451"/>
    </g>
    <g clip-path="url(#p5a67343740)">
     <use style="fill:#ffffff;stroke:#000000;" x="304.432111955" xlink:href="#C1_b_bfe955e8a6" y="231.984061576"/>
    </g>
    <g clip-path="url(#p5a67343740)">
     <use style="fill:#ffff80;stroke:#000000;" x="280.082951496" xlink:href="#C1_c_976255c095" y="212.927430933"/>
    </g>
    <g clip-path="url(#p5a67343740)">
     <use style="fill:#ffffff;stroke:#000000;" x="415.378737639" xlink:href="#C1_d_976255c095" y="117.50220269"/>
    </g>
    <g clip-path="url(#p5a67343740)">
     <use style="fill:#ffffff;stroke:#000000;" x="363.407143067" xlink:href="#C1_e_72e6d5a2bf" y="152.042344781"/>
    </g>
    <g clip-path="url(#p5a67343740)">
     <use style="fill:#ffffff;stroke:#000000;" x="306.115888542" xlink:href="#C1_f_976255c095" y="193.250849786"/>
    </g>
    <g clip-path="url(#p5a67343740)">
     <use style="fill:#ff5005;stroke:#000000;" x="248.061566672" xlink:href="#C1_10_976255c095" y="303.476410841"/>
    </g>
    <g clip-path="url(#p5a67343740)">
     <use style="fill:#ffff80;stroke:#000000;" x="324.889039876" xlink:href="#C1_11_739a1130b9" y="196.403090559"/>
    </g>
    <g clip-path="url(#p5a67343740)">
     <use style="fill:#ff5005;stroke:#000000;" x="208.800012891" xlink:href="#C1_12_43e184535d" y="260.415938005"/>
    </g>
    <g clip-path="url(#p5a67343740)">
     <use style="fill:#ffffff;stroke:#000000;" x="342.312813312" xlink:href="#C1_13_bfe955e8a6" y="222.946284828"/>
    </g>
   </g>
   <g id="text_1">
    <g clip-path="url(#p5a67343740)">
     <!-- 204.69.12 -->
     <defs>
      <path d="
M19.1875 8.29688
L53.6094 8.29688
L53.6094 0
L7.32812 0
L7.32812 8.29688
Q12.9375 14.1094 22.625 23.8906
Q32.3281 33.6875 34.8125 36.5312
Q39.5469 41.8438 41.4219 45.5312
Q43.3125 49.2188 43.3125 52.7812
Q43.3125 58.5938 39.2344 62.25
Q35.1562 65.9219 28.6094 65.9219
Q23.9688 65.9219 18.8125 64.3125
Q13.6719 62.7031 7.8125 59.4219
L7.8125 69.3906
Q13.7656 71.7812 18.9375 73
Q24.125 74.2188 28.4219 74.2188
Q39.75 74.2188 46.4844 68.5469
Q53.2188 62.8906 53.2188 53.4219
Q53.2188 48.9219 51.5312 44.8906
Q49.8594 40.875 45.4062 35.4062
Q44.1875 33.9844 37.6406 27.2188
Q31.1094 20.4531 19.1875 8.29688" id="BitstreamVeraSans-Roman-32"/>
      <path d="
M31.7812 66.4062
Q24.1719 66.4062 20.3281 58.9062
Q16.5 51.4219 16.5 36.375
Q16.5 21.3906 20.3281 13.8906
Q24.1719 6.39062 31.7812 6.39062
Q39.4531 6.39062 43.2812 13.8906
Q47.125 21.3906 47.125 36.375
Q47.125 51.4219 43.2812 58.9062
Q39.4531 66.4062 31.7812 66.4062
M31.7812 74.2188
Q44.0469 74.2188 50.5156 64.5156
Q56.9844 54.8281 56.9844 36.375
Q56.9844 17.9688 50.5156 8.26562
Q44.0469 -1.42188 31.7812 -1.42188
Q19.5312 -1.42188 13.0625 8.26562
Q6.59375 17.9688 6.59375 36.375
Q6.59375 54.8281 13.0625 64.5156
Q19.5312 74.2188 31.7812 74.2188" id="BitstreamVeraSans-Roman-30"/>
      <path d="
M12.4062 8.29688
L28.5156 8.29688
L28.5156 63.9219
L10.9844 60.4062
L10.9844 69.3906
L28.4219 72.9062
L38.2812 72.9062
L38.2812 8.29688
L54.3906 8.29688
L54.3906 0
L12.4062 0
z
" id="BitstreamVeraSans-Roman-31"/>
      <path d="
M33.0156 40.375
Q26.375 40.375 22.4844 35.8281
Q18.6094 31.2969 18.6094 23.3906
Q18.6094 15.5312 22.4844 10.9531
Q26.375 6.39062 33.0156 6.39062
Q39.6562 6.39062 43.5312 10.9531
Q47.4062 15.5312 47.4062 23.3906
Q47.4062 31.2969 43.5312 35.8281
Q39.6562 40.375 33.0156 40.375
M52.5938 71.2969
L52.5938 62.3125
Q48.875 64.0625 45.0938 64.9844
Q41.3125 65.9219 37.5938 65.9219
Q27.8281 65.9219 22.6719 59.3281
Q17.5312 52.7344 16.7969 39.4062
Q19.6719 43.6562 24.0156 45.9219
Q28.375 48.1875 33.5938 48.1875
Q44.5781 48.1875 50.9531 41.5156
Q57.3281 34.8594 57.3281 23.3906
Q57.3281 12.1562 50.6875 5.35938
Q44.0469 -1.42188 33.0156 -1.42188
Q20.3594 -1.42188 13.6719 8.26562
Q6.98438 17.9688 6.98438 36.375
Q6.98438 53.6562 15.1875 63.9375
Q23.3906 74.2188 37.2031 74.2188
Q40.9219 74.2188 44.7031 73.4844
Q48.4844 72.75 52.5938 71.2969" id="BitstreamVeraSans-Roman-36"/>
      <path d="
M37.7969 64.3125
L12.8906 25.3906
L37.7969 25.3906
z

M35.2031 72.9062
L47.6094 72.9062
L47.6094 25.3906
L58.0156 25.3906
L58.0156 17.1875
L47.6094 17.1875
L47.6094 0
L37.7969 0
L37.7969 17.1875
L4.89062 17.1875
L4.89062 26.7031
z
" id="BitstreamVeraSans-Roman-34"/>
      <path d="
M10.9844 1.51562
L10.9844 10.5
Q14.7031 8.73438 18.5 7.8125
Q22.3125 6.89062 25.9844 6.89062
Q35.75 6.89062 40.8906 13.4531
Q46.0469 20.0156 46.7812 33.4062
Q43.9531 29.2031 39.5938 26.9531
Q35.25 24.7031 29.9844 24.7031
Q19.0469 24.7031 12.6719 31.3125
Q6.29688 37.9375 6.29688 49.4219
Q6.29688 60.6406 12.9375 67.4219
Q19.5781 74.2188 30.6094 74.2188
Q43.2656 74.2188 49.9219 64.5156
Q56.5938 54.8281 56.5938 36.375
Q56.5938 19.1406 48.4062 8.85938
Q40.2344 -1.42188 26.4219 -1.42188
Q22.7031 -1.42188 18.8906 -0.6875
Q15.0938 0.046875 10.9844 1.51562
M30.6094 32.4219
Q37.25 32.4219 41.125 36.9531
Q45.0156 41.5 45.0156 49.4219
Q45.0156 57.2812 41.125 61.8438
Q37.25 66.4062 30.6094 66.4062
Q23.9688 66.4062 20.0938 61.8438
Q16.2188 57.2812 16.2188 49.4219
Q16.2188 41.5 20.0938 36.9531
Q23.9688 32.4219 30.6094 32.4219" id="BitstreamVeraSans-Roman-39"/>
      <path d="
M10.6875 12.4062
L21 12.4062
L21 0
L10.6875 0
z
" id="BitstreamVeraSans-Roman-2e"/>
     </defs>
     <g transform="translate(265.088053791 310.159203774)scale(0.05 -0.05)">
      <use xlink:href="#BitstreamVeraSans-Roman-32"/>
      <use x="63.623046875" xlink:href="#BitstreamVeraSans-Roman-30"/>
      <use x="127.24609375" xlink:href="#BitstreamVeraSans-Roman-34"/>
      <use x="190.869140625" xlink:href="#BitstreamVeraSans-Roman-2e"/>
      <use x="222.65625" xlink:href="#BitstreamVeraSans-Roman-36"/>
      <use x="286.279296875" xlink:href="#BitstreamVeraSans-Roman-39"/>
      <use x="349.90234375" xlink:href="#BitstreamVeraSans-Roman-2e"/>
      <use x="381.689453125" xlink:href="#BitstreamVeraSans-Roman-31"/>
      <use x="445.3125" xlink:href="#BitstreamVeraSans-Roman-32"/>
     </g>
    </g>
   </g>
   <g id="text_2">
    <g clip-path="url(#p5a67343740)">
     <!-- 204.69.11.1  -->
     <defs>
      <path id="BitstreamVeraSans-Roman-20"/>
     </defs>
     <g transform="translate(269.229719734 172.96463242)scale(0.05 -0.05)">
      <use xlink:href="#BitstreamVeraSans-Roman-32"/>
      <use x="63.623046875" xlink:href="#BitstreamVeraSans-Roman-30"/>
      <use x="127.24609375" xlink:href="#BitstreamVeraSans-Roman-34"/>
      <use x="190.869140625" xlink:href="#BitstreamVeraSans-Roman-2e"/>
      <use x="222.65625" xlink:href="#BitstreamVeraSans-Roman-36"/>
      <use x="286.279296875" xlink:href="#BitstreamVeraSans-Roman-39"/>
      <use x="349.90234375" xlink:href="#BitstreamVeraSans-Roman-2e"/>
      <use x="381.689453125" xlink:href="#BitstreamVeraSans-Roman-31"/>
      <use x="445.3125" xlink:href="#BitstreamVeraSans-Roman-31"/>
      <use x="508.935546875" xlink:href="#BitstreamVeraSans-Roman-2e"/>
      <use x="540.72265625" xlink:href="#BitstreamVeraSans-Roman-31"/>
      <use x="604.345703125" xlink:href="#BitstreamVeraSans-Roman-20"/>
     </g>
    </g>
   </g>
   <g id="text_3">
    <g clip-path="url(#p5a67343740)">
     <!-- 204.69.11.2  -->
     <g transform="translate(234.204258966 197.16084978)scale(0.05 -0.05)">
      <use xlink:href="#BitstreamVeraSans-Roman-32"/>
      <use x="63.623046875" xlink:href="#BitstreamVeraSans-Roman-30"/>
      <use x="127.24609375" xlink:href="#BitstreamVeraSans-Roman-34"/>
      <use x="190.869140625" xlink:href="#BitstreamVeraSans-Roman-2e"/>
      <use x="222.65625" xlink:href="#BitstreamVeraSans-Roman-36"/>
      <use x="286.279296875" xlink:href="#BitstreamVeraSans-Roman-39"/>
      <use x="349.90234375" xlink:href="#BitstreamVeraSans-Roman-2e"/>
      <use x="381.689453125" xlink:href="#BitstreamVeraSans-Roman-31"/>
      <use x="445.3125" xlink:href="#BitstreamVeraSans-Roman-31"/>
      <use x="508.935546875" xlink:href="#BitstreamVeraSans-Roman-2e"/>
      <use x="540.72265625" xlink:href="#BitstreamVeraSans-Roman-32"/>
      <use x="604.345703125" xlink:href="#BitstreamVeraSans-Roman-20"/>
     </g>
    </g>
   </g>
   <g id="text_4">
    <g clip-path="url(#p5a67343740)">
     <!-- 204.69.11.60  -->
     <g transform="translate(477.181082589 48.3323112408)scale(0.05 -0.05)">
      <use xlink:href="#BitstreamVeraSans-Roman-32"/>
      <use x="63.623046875" xlink:href="#BitstreamVeraSans-Roman-30"/>
      <use x="127.24609375" xlink:href="#BitstreamVeraSans-Roman-34"/>
      <use x="190.869140625" xlink:href="#BitstreamVeraSans-Roman-2e"/>
      <use x="222.65625" xlink:href="#BitstreamVeraSans-Roman-36"/>
      <use x="286.279296875" xlink:href="#BitstreamVeraSans-Roman-39"/>
      <use x="349.90234375" xlink:href="#BitstreamVeraSans-Roman-2e"/>
      <use x="381.689453125" xlink:href="#BitstreamVeraSans-Roman-31"/>
      <use x="445.3125" xlink:href="#BitstreamVeraSans-Roman-31"/>
      <use x="508.935546875" xlink:href="#BitstreamVeraSans-Roman-2e"/>
      <use x="540.72265625" xlink:href="#BitstreamVeraSans-Roman-36"/>
      <use x="604.345703125" xlink:href="#BitstreamVeraSans-Roman-30"/>
      <use x="667.96875" xlink:href="#BitstreamVeraSans-Roman-20"/>
     </g>
    </g>
   </g>
   <g id="text_5">
    <g clip-path="url(#p5a67343740)">
     <!-- 204.69.12.15  -->
     <defs>
      <path d="
M10.7969 72.9062
L49.5156 72.9062
L49.5156 64.5938
L19.8281 64.5938
L19.8281 46.7344
Q21.9688 47.4688 24.1094 47.8281
Q26.2656 48.1875 28.4219 48.1875
Q40.625 48.1875 47.75 41.5
Q54.8906 34.8125 54.8906 23.3906
Q54.8906 11.625 47.5625 5.09375
Q40.2344 -1.42188 26.9062 -1.42188
Q22.3125 -1.42188 17.5469 -0.640625
Q12.7969 0.140625 7.71875 1.70312
L7.71875 11.625
Q12.1094 9.23438 16.7969 8.0625
Q21.4844 6.89062 26.7031 6.89062
Q35.1562 6.89062 40.0781 11.3281
Q45.0156 15.7656 45.0156 23.3906
Q45.0156 31 40.0781 35.4375
Q35.1562 39.8906 26.7031 39.8906
Q22.75 39.8906 18.8125 39.0156
Q14.8906 38.1406 10.7969 36.2812
z
" id="BitstreamVeraSans-Roman-35"/>
     </defs>
     <g transform="translate(325.831953937 224.325972328)scale(0.05 -0.05)">
      <use xlink:href="#BitstreamVeraSans-Roman-32"/>
      <use x="63.623046875" xlink:href="#BitstreamVeraSans-Roman-30"/>
      <use x="127.24609375" xlink:href="#BitstreamVeraSans-Roman-34"/>
      <use x="190.869140625" xlink:href="#BitstreamVeraSans-Roman-2e"/>
      <use x="222.65625" xlink:href="#BitstreamVeraSans-Roman-36"/>
      <use x="286.279296875" xlink:href="#BitstreamVeraSans-Roman-39"/>
      <use x="349.90234375" xlink:href="#BitstreamVeraSans-Roman-2e"/>
      <use x="381.689453125" xlink:href="#BitstreamVeraSans-Roman-31"/>
      <use x="445.3125" xlink:href="#BitstreamVeraSans-Roman-32"/>
      <use x="508.935546875" xlink:href="#BitstreamVeraSans-Roman-2e"/>
      <use x="540.72265625" xlink:href="#BitstreamVeraSans-Roman-31"/>
      <use x="604.345703125" xlink:href="#BitstreamVeraSans-Roman-35"/>
      <use x="667.96875" xlink:href="#BitstreamVeraSans-Roman-20"/>
     </g>
    </g>
   </g>
   <g id="text_6">
    <g clip-path="url(#p5a67343740)">
     <!-- 204.69.11.58  -->
     <defs>
      <path d="
M31.7812 34.625
Q24.75 34.625 20.7188 30.8594
Q16.7031 27.0938 16.7031 20.5156
Q16.7031 13.9219 20.7188 10.1562
Q24.75 6.39062 31.7812 6.39062
Q38.8125 6.39062 42.8594 10.1719
Q46.9219 13.9688 46.9219 20.5156
Q46.9219 27.0938 42.8906 30.8594
Q38.875 34.625 31.7812 34.625
M21.9219 38.8125
Q15.5781 40.375 12.0312 44.7188
Q8.5 49.0781 8.5 55.3281
Q8.5 64.0625 14.7188 69.1406
Q20.9531 74.2188 31.7812 74.2188
Q42.6719 74.2188 48.875 69.1406
Q55.0781 64.0625 55.0781 55.3281
Q55.0781 49.0781 51.5312 44.7188
Q48 40.375 41.7031 38.8125
Q48.8281 37.1562 52.7969 32.3125
Q56.7812 27.4844 56.7812 20.5156
Q56.7812 9.90625 50.3125 4.23438
Q43.8438 -1.42188 31.7812 -1.42188
Q19.7344 -1.42188 13.25 4.23438
Q6.78125 9.90625 6.78125 20.5156
Q6.78125 27.4844 10.7812 32.3125
Q14.7969 37.1562 21.9219 38.8125
M18.3125 54.3906
Q18.3125 48.7344 21.8438 45.5625
Q25.3906 42.3906 31.7812 42.3906
Q38.1406 42.3906 41.7188 45.5625
Q45.3125 48.7344 45.3125 54.3906
Q45.3125 60.0625 41.7188 63.2344
Q38.1406 66.4062 31.7812 66.4062
Q25.3906 66.4062 21.8438 63.2344
Q18.3125 60.0625 18.3125 54.3906" id="BitstreamVeraSans-Roman-38"/>
     </defs>
     <g transform="translate(366.521201986 111.61821304)scale(0.05 -0.05)">
      <use xlink:href="#BitstreamVeraSans-Roman-32"/>
      <use x="63.623046875" xlink:href="#BitstreamVeraSans-Roman-30"/>
      <use x="127.24609375" xlink:href="#BitstreamVeraSans-Roman-34"/>
      <use x="190.869140625" xlink:href="#BitstreamVeraSans-Roman-2e"/>
      <use x="222.65625" xlink:href="#BitstreamVeraSans-Roman-36"/>
      <use x="286.279296875" xlink:href="#BitstreamVeraSans-Roman-39"/>
      <use x="349.90234375" xlink:href="#BitstreamVeraSans-Roman-2e"/>
      <use x="381.689453125" xlink:href="#BitstreamVeraSans-Roman-31"/>
      <use x="445.3125" xlink:href="#BitstreamVeraSans-Roman-31"/>
      <use x="508.935546875" xlink:href="#BitstreamVeraSans-Roman-2e"/>
      <use x="540.72265625" xlink:href="#BitstreamVeraSans-Roman-35"/>
      <use x="604.345703125" xlink:href="#BitstreamVeraSans-Roman-38"/>
      <use x="667.96875" xlink:href="#BitstreamVeraSans-Roman-20"/>
     </g>
    </g>
   </g>
   <g id="text_7">
    <g clip-path="url(#p5a67343740)">
     <!-- 204.69.10 -->
     <g transform="translate(247.413073251 270.489319091)scale(0.05 -0.05)">
      <use xlink:href="#BitstreamVeraSans-Roman-32"/>
      <use x="63.623046875" xlink:href="#BitstreamVeraSans-Roman-30"/>
      <use x="127.24609375" xlink:href="#BitstreamVeraSans-Roman-34"/>
      <use x="190.869140625" xlink:href="#BitstreamVeraSans-Roman-2e"/>
      <use x="222.65625" xlink:href="#BitstreamVeraSans-Roman-36"/>
      <use x="286.279296875" xlink:href="#BitstreamVeraSans-Roman-39"/>
      <use x="349.90234375" xlink:href="#BitstreamVeraSans-Roman-2e"/>
      <use x="381.689453125" xlink:href="#BitstreamVeraSans-Roman-31"/>
      <use x="445.3125" xlink:href="#BitstreamVeraSans-Roman-30"/>
     </g>
    </g>
   </g>
   <g id="text_8">
    <g clip-path="url(#p5a67343740)">
     <!-- ROOT 204.69.8. -->
     <defs>
      <path d="
M39.4062 66.2188
Q28.6562 66.2188 22.3281 58.2031
Q16.0156 50.2031 16.0156 36.375
Q16.0156 22.6094 22.3281 14.5938
Q28.6562 6.59375 39.4062 6.59375
Q50.1406 6.59375 56.4219 14.5938
Q62.7031 22.6094 62.7031 36.375
Q62.7031 50.2031 56.4219 58.2031
Q50.1406 66.2188 39.4062 66.2188
M39.4062 74.2188
Q54.7344 74.2188 63.9062 63.9375
Q73.0938 53.6562 73.0938 36.375
Q73.0938 19.1406 63.9062 8.85938
Q54.7344 -1.42188 39.4062 -1.42188
Q24.0312 -1.42188 14.8125 8.82812
Q5.60938 19.0938 5.60938 36.375
Q5.60938 53.6562 14.8125 63.9375
Q24.0312 74.2188 39.4062 74.2188" id="BitstreamVeraSans-Roman-4f"/>
      <path d="
M44.3906 34.1875
Q47.5625 33.1094 50.5625 29.5938
Q53.5625 26.0781 56.5938 19.9219
L66.6094 0
L56 0
L46.6875 18.7031
Q43.0625 26.0312 39.6719 28.4219
Q36.2812 30.8125 30.4219 30.8125
L19.6719 30.8125
L19.6719 0
L9.8125 0
L9.8125 72.9062
L32.0781 72.9062
Q44.5781 72.9062 50.7344 67.6719
Q56.8906 62.4531 56.8906 51.9062
Q56.8906 45.0156 53.6875 40.4688
Q50.4844 35.9375 44.3906 34.1875
M19.6719 64.7969
L19.6719 38.9219
L32.0781 38.9219
Q39.2031 38.9219 42.8438 42.2188
Q46.4844 45.5156 46.4844 51.9062
Q46.4844 58.2969 42.8438 61.5469
Q39.2031 64.7969 32.0781 64.7969
z
" id="BitstreamVeraSans-Roman-52"/>
      <path d="
M-0.296875 72.9062
L61.375 72.9062
L61.375 64.5938
L35.5 64.5938
L35.5 0
L25.5938 0
L25.5938 64.5938
L-0.296875 64.5938
z
" id="BitstreamVeraSans-Roman-54"/>
     </defs>
     <g transform="translate(227.599648568 252.13196697)scale(0.05 -0.05)">
      <use xlink:href="#BitstreamVeraSans-Roman-52"/>
      <use x="69.482421875" xlink:href="#BitstreamVeraSans-Roman-4f"/>
      <use x="148.193359375" xlink:href="#BitstreamVeraSans-Roman-4f"/>
      <use x="226.904296875" xlink:href="#BitstreamVeraSans-Roman-54"/>
      <use x="287.98828125" xlink:href="#BitstreamVeraSans-Roman-20"/>
      <use x="319.775390625" xlink:href="#BitstreamVeraSans-Roman-32"/>
      <use x="383.3984375" xlink:href="#BitstreamVeraSans-Roman-30"/>
      <use x="447.021484375" xlink:href="#BitstreamVeraSans-Roman-34"/>
      <use x="510.64453125" xlink:href="#BitstreamVeraSans-Roman-2e"/>
      <use x="542.431640625" xlink:href="#BitstreamVeraSans-Roman-36"/>
      <use x="606.0546875" xlink:href="#BitstreamVeraSans-Roman-39"/>
      <use x="669.677734375" xlink:href="#BitstreamVeraSans-Roman-2e"/>
      <use x="701.46484375" xlink:href="#BitstreamVeraSans-Roman-38"/>
      <use x="765.087890625" xlink:href="#BitstreamVeraSans-Roman-2e"/>
     </g>
    </g>
   </g>
   <g id="text_9">
    <g clip-path="url(#p5a67343740)">
     <!-- 204.69.12.50  -->
     <g transform="translate(343.984877301 207.239464899)scale(0.05 -0.05)">
      <use xlink:href="#BitstreamVeraSans-Roman-32"/>
      <use x="63.623046875" xlink:href="#BitstreamVeraSans-Roman-30"/>
      <use x="127.24609375" xlink:href="#BitstreamVeraSans-Roman-34"/>
      <use x="190.869140625" xlink:href="#BitstreamVeraSans-Roman-2e"/>
      <use x="222.65625" xlink:href="#BitstreamVeraSans-Roman-36"/>
      <use x="286.279296875" xlink:href="#BitstreamVeraSans-Roman-39"/>
      <use x="349.90234375" xlink:href="#BitstreamVeraSans-Roman-2e"/>
      <use x="381.689453125" xlink:href="#BitstreamVeraSans-Roman-31"/>
      <use x="445.3125" xlink:href="#BitstreamVeraSans-Roman-32"/>
      <use x="508.935546875" xlink:href="#BitstreamVeraSans-Roman-2e"/>
      <use x="540.72265625" xlink:href="#BitstreamVeraSans-Roman-35"/>
      <use x="604.345703125" xlink:href="#BitstreamVeraSans-Roman-30"/>
      <use x="667.96875" xlink:href="#BitstreamVeraSans-Roman-20"/>
     </g>
    </g>
   </g>
   <g id="text_10">
    <g clip-path="url(#p5a67343740)">
     <!-- 204.69.13.3  -->
     <defs>
      <path d="
M40.5781 39.3125
Q47.6562 37.7969 51.625 33
Q55.6094 28.2188 55.6094 21.1875
Q55.6094 10.4062 48.1875 4.48438
Q40.7656 -1.42188 27.0938 -1.42188
Q22.5156 -1.42188 17.6562 -0.515625
Q12.7969 0.390625 7.625 2.20312
L7.625 11.7188
Q11.7188 9.32812 16.5938 8.10938
Q21.4844 6.89062 26.8125 6.89062
Q36.0781 6.89062 40.9375 10.5469
Q45.7969 14.2031 45.7969 21.1875
Q45.7969 27.6406 41.2812 31.2656
Q36.7656 34.9062 28.7188 34.9062
L20.2188 34.9062
L20.2188 43.0156
L29.1094 43.0156
Q36.375 43.0156 40.2344 45.9219
Q44.0938 48.8281 44.0938 54.2969
Q44.0938 59.9062 40.1094 62.9062
Q36.1406 65.9219 28.7188 65.9219
Q24.6562 65.9219 20.0156 65.0312
Q15.375 64.1562 9.8125 62.3125
L9.8125 71.0938
Q15.4375 72.6562 20.3438 73.4375
Q25.25 74.2188 29.5938 74.2188
Q40.8281 74.2188 47.3594 69.1094
Q53.9062 64.0156 53.9062 55.3281
Q53.9062 49.2656 50.4375 45.0938
Q46.9688 40.9219 40.5781 39.3125" id="BitstreamVeraSans-Roman-33"/>
     </defs>
     <g transform="translate(267.958604575 239.659471413)scale(0.05 -0.05)">
      <use xlink:href="#BitstreamVeraSans-Roman-32"/>
      <use x="63.623046875" xlink:href="#BitstreamVeraSans-Roman-30"/>
      <use x="127.24609375" xlink:href="#BitstreamVeraSans-Roman-34"/>
      <use x="190.869140625" xlink:href="#BitstreamVeraSans-Roman-2e"/>
      <use x="222.65625" xlink:href="#BitstreamVeraSans-Roman-36"/>
      <use x="286.279296875" xlink:href="#BitstreamVeraSans-Roman-39"/>
      <use x="349.90234375" xlink:href="#BitstreamVeraSans-Roman-2e"/>
      <use x="381.689453125" xlink:href="#BitstreamVeraSans-Roman-31"/>
      <use x="445.3125" xlink:href="#BitstreamVeraSans-Roman-33"/>
      <use x="508.935546875" xlink:href="#BitstreamVeraSans-Roman-2e"/>
      <use x="540.72265625" xlink:href="#BitstreamVeraSans-Roman-33"/>
      <use x="604.345703125" xlink:href="#BitstreamVeraSans-Roman-20"/>
     </g>
    </g>
   </g>
   <g id="text_11">
    <g clip-path="url(#p5a67343740)">
     <!-- 204.69.13.102  -->
     <g transform="translate(272.554146029 259.995157951)scale(0.05 -0.05)">
      <use xlink:href="#BitstreamVeraSans-Roman-32"/>
      <use x="63.623046875" xlink:href="#BitstreamVeraSans-Roman-30"/>
      <use x="127.24609375" xlink:href="#BitstreamVeraSans-Roman-34"/>
      <use x="190.869140625" xlink:href="#BitstreamVeraSans-Roman-2e"/>
      <use x="222.65625" xlink:href="#BitstreamVeraSans-Roman-36"/>
      <use x="286.279296875" xlink:href="#BitstreamVeraSans-Roman-39"/>
      <use x="349.90234375" xlink:href="#BitstreamVeraSans-Roman-2e"/>
      <use x="381.689453125" xlink:href="#BitstreamVeraSans-Roman-31"/>
      <use x="445.3125" xlink:href="#BitstreamVeraSans-Roman-33"/>
      <use x="508.935546875" xlink:href="#BitstreamVeraSans-Roman-2e"/>
      <use x="540.72265625" xlink:href="#BitstreamVeraSans-Roman-31"/>
      <use x="604.345703125" xlink:href="#BitstreamVeraSans-Roman-30"/>
      <use x="667.96875" xlink:href="#BitstreamVeraSans-Roman-32"/>
      <use x="731.591796875" xlink:href="#BitstreamVeraSans-Roman-20"/>
     </g>
    </g>
   </g>
   <g id="text_12">
    <g clip-path="url(#p5a67343740)">
     <!-- 204.69.11.22  -->
     <g transform="translate(398.929909514 118.88189019)scale(0.05 -0.05)">
      <use xlink:href="#BitstreamVeraSans-Roman-32"/>
      <use x="63.623046875" xlink:href="#BitstreamVeraSans-Roman-30"/>
      <use x="127.24609375" xlink:href="#BitstreamVeraSans-Roman-34"/>
      <use x="190.869140625" xlink:href="#BitstreamVeraSans-Roman-2e"/>
      <use x="222.65625" xlink:href="#BitstreamVeraSans-Roman-36"/>
      <use x="286.279296875" xlink:href="#BitstreamVeraSans-Roman-39"/>
      <use x="349.90234375" xlink:href="#BitstreamVeraSans-Roman-2e"/>
      <use x="381.689453125" xlink:href="#BitstreamVeraSans-Roman-31"/>
      <use x="445.3125" xlink:href="#BitstreamVeraSans-Roman-31"/>
      <use x="508.935546875" xlink:href="#BitstreamVeraSans-Roman-2e"/>
      <use x="540.72265625" xlink:href="#BitstreamVeraSans-Roman-32"/>
      <use x="604.345703125" xlink:href="#BitstreamVeraSans-Roman-32"/>
      <use x="667.96875" xlink:href="#BitstreamVeraSans-Roman-20"/>
     </g>
    </g>
   </g>
   <g id="text_13">
    <g clip-path="url(#p5a67343740)">
     <!-- 140.142.229 -->
     <g transform="translate(264.628654621 214.307118433)scale(0.05 -0.05)">
      <use xlink:href="#BitstreamVeraSans-Roman-31"/>
      <use x="63.623046875" xlink:href="#BitstreamVeraSans-Roman-34"/>
      <use x="127.24609375" xlink:href="#BitstreamVeraSans-Roman-30"/>
      <use x="190.869140625" xlink:href="#BitstreamVeraSans-Roman-2e"/>
      <use x="222.65625" xlink:href="#BitstreamVeraSans-Roman-31"/>
      <use x="286.279296875" xlink:href="#BitstreamVeraSans-Roman-34"/>
      <use x="349.90234375" xlink:href="#BitstreamVeraSans-Roman-32"/>
      <use x="413.525390625" xlink:href="#BitstreamVeraSans-Roman-2e"/>
      <use x="445.3125" xlink:href="#BitstreamVeraSans-Roman-32"/>
      <use x="508.935546875" xlink:href="#BitstreamVeraSans-Roman-32"/>
      <use x="572.55859375" xlink:href="#BitstreamVeraSans-Roman-39"/>
     </g>
    </g>
   </g>
   <g id="text_14">
    <g clip-path="url(#p5a67343740)">
     <!-- 204.69.12.16  -->
     <g transform="translate(287.89031508 233.363749076)scale(0.05 -0.05)">
      <use xlink:href="#BitstreamVeraSans-Roman-32"/>
      <use x="63.623046875" xlink:href="#BitstreamVeraSans-Roman-30"/>
      <use x="127.24609375" xlink:href="#BitstreamVeraSans-Roman-34"/>
      <use x="190.869140625" xlink:href="#BitstreamVeraSans-Roman-2e"/>
      <use x="222.65625" xlink:href="#BitstreamVeraSans-Roman-36"/>
      <use x="286.279296875" xlink:href="#BitstreamVeraSans-Roman-39"/>
      <use x="349.90234375" xlink:href="#BitstreamVeraSans-Roman-2e"/>
      <use x="381.689453125" xlink:href="#BitstreamVeraSans-Roman-31"/>
      <use x="445.3125" xlink:href="#BitstreamVeraSans-Roman-32"/>
      <use x="508.935546875" xlink:href="#BitstreamVeraSans-Roman-2e"/>
      <use x="540.72265625" xlink:href="#BitstreamVeraSans-Roman-31"/>
      <use x="604.345703125" xlink:href="#BitstreamVeraSans-Roman-36"/>
      <use x="667.96875" xlink:href="#BitstreamVeraSans-Roman-20"/>
     </g>
    </g>
   </g>
   <g id="text_15">
    <g clip-path="url(#p5a67343740)">
     <!-- 204.69.11.21  -->
     <g transform="translate(346.938783692 153.422032281)scale(0.05 -0.05)">
      <use xlink:href="#BitstreamVeraSans-Roman-32"/>
      <use x="63.623046875" xlink:href="#BitstreamVeraSans-Roman-30"/>
      <use x="127.24609375" xlink:href="#BitstreamVeraSans-Roman-34"/>
      <use x="190.869140625" xlink:href="#BitstreamVeraSans-Roman-2e"/>
      <use x="222.65625" xlink:href="#BitstreamVeraSans-Roman-36"/>
      <use x="286.279296875" xlink:href="#BitstreamVeraSans-Roman-39"/>
      <use x="349.90234375" xlink:href="#BitstreamVeraSans-Roman-2e"/>
      <use x="381.689453125" xlink:href="#BitstreamVeraSans-Roman-31"/>
      <use x="445.3125" xlink:href="#BitstreamVeraSans-Roman-31"/>
      <use x="508.935546875" xlink:href="#BitstreamVeraSans-Roman-2e"/>
      <use x="540.72265625" xlink:href="#BitstreamVeraSans-Roman-32"/>
      <use x="604.345703125" xlink:href="#BitstreamVeraSans-Roman-31"/>
      <use x="667.96875" xlink:href="#BitstreamVeraSans-Roman-20"/>
     </g>
    </g>
   </g>
   <g id="text_16">
    <g clip-path="url(#p5a67343740)">
     <!-- 204.69.11 -->
     <g transform="translate(69.9763392857 379.3796875)scale(0.05 -0.05)">
      <use xlink:href="#BitstreamVeraSans-Roman-32"/>
      <use x="63.623046875" xlink:href="#BitstreamVeraSans-Roman-30"/>
      <use x="127.24609375" xlink:href="#BitstreamVeraSans-Roman-34"/>
      <use x="190.869140625" xlink:href="#BitstreamVeraSans-Roman-2e"/>
      <use x="222.65625" xlink:href="#BitstreamVeraSans-Roman-36"/>
      <use x="286.279296875" xlink:href="#BitstreamVeraSans-Roman-39"/>
      <use x="349.90234375" xlink:href="#BitstreamVeraSans-Roman-2e"/>
      <use x="381.689453125" xlink:href="#BitstreamVeraSans-Roman-31"/>
      <use x="445.3125" xlink:href="#BitstreamVeraSans-Roman-31"/>
     </g>
    </g>
   </g>
   <g id="text_17">
    <g clip-path="url(#p5a67343740)">
     <!-- 204.69.12 -->
     <g transform="translate(235.771722922 304.856098341)scale(0.05 -0.05)">
      <use xlink:href="#BitstreamVeraSans-Roman-32"/>
      <use x="63.623046875" xlink:href="#BitstreamVeraSans-Roman-30"/>
      <use x="127.24609375" xlink:href="#BitstreamVeraSans-Roman-34"/>
      <use x="190.869140625" xlink:href="#BitstreamVeraSans-Roman-2e"/>
      <use x="222.65625" xlink:href="#BitstreamVeraSans-Roman-36"/>
      <use x="286.279296875" xlink:href="#BitstreamVeraSans-Roman-39"/>
      <use x="349.90234375" xlink:href="#BitstreamVeraSans-Roman-2e"/>
      <use x="381.689453125" xlink:href="#BitstreamVeraSans-Roman-31"/>
      <use x="445.3125" xlink:href="#BitstreamVeraSans-Roman-32"/>
     </g>
    </g>
   </g>
   <g id="text_18">
    <g clip-path="url(#p5a67343740)">
     <!-- 140.142.168 -->
     <g transform="translate(309.430055501 197.782778059)scale(0.05 -0.05)">
      <use xlink:href="#BitstreamVeraSans-Roman-31"/>
      <use x="63.623046875" xlink:href="#BitstreamVeraSans-Roman-34"/>
      <use x="127.24609375" xlink:href="#BitstreamVeraSans-Roman-30"/>
      <use x="190.869140625" xlink:href="#BitstreamVeraSans-Roman-2e"/>
      <use x="222.65625" xlink:href="#BitstreamVeraSans-Roman-31"/>
      <use x="286.279296875" xlink:href="#BitstreamVeraSans-Roman-34"/>
      <use x="349.90234375" xlink:href="#BitstreamVeraSans-Roman-32"/>
      <use x="413.525390625" xlink:href="#BitstreamVeraSans-Roman-2e"/>
      <use x="445.3125" xlink:href="#BitstreamVeraSans-Roman-31"/>
      <use x="508.935546875" xlink:href="#BitstreamVeraSans-Roman-36"/>
      <use x="572.55859375" xlink:href="#BitstreamVeraSans-Roman-38"/>
     </g>
    </g>
   </g>
   <g id="text_19">
    <g clip-path="url(#p5a67343740)">
     <!-- 204.69.12 -->
     <g transform="translate(196.510169141 261.795625505)scale(0.05 -0.05)">
      <use xlink:href="#BitstreamVeraSans-Roman-32"/>
      <use x="63.623046875" xlink:href="#BitstreamVeraSans-Roman-30"/>
      <use x="127.24609375" xlink:href="#BitstreamVeraSans-Roman-34"/>
      <use x="190.869140625" xlink:href="#BitstreamVeraSans-Roman-2e"/>
      <use x="222.65625" xlink:href="#BitstreamVeraSans-Roman-36"/>
      <use x="286.279296875" xlink:href="#BitstreamVeraSans-Roman-39"/>
      <use x="349.90234375" xlink:href="#BitstreamVeraSans-Roman-2e"/>
      <use x="381.689453125" xlink:href="#BitstreamVeraSans-Roman-31"/>
      <use x="445.3125" xlink:href="#BitstreamVeraSans-Roman-32"/>
     </g>
    </g>
   </g>
   <g id="text_20">
    <g clip-path="url(#p5a67343740)">
     <!-- 204.69.12.10  -->
     <g transform="translate(289.582685417 194.630537286)scale(0.05 -0.05)">
      <use xlink:href="#BitstreamVeraSans-Roman-32"/>
      <use x="63.623046875" xlink:href="#BitstreamVeraSans-Roman-30"/>
      <use x="127.24609375" xlink:href="#BitstreamVeraSans-Roman-34"/>
      <use x="190.869140625" xlink:href="#BitstreamVeraSans-Roman-2e"/>
      <use x="222.65625" xlink:href="#BitstreamVeraSans-Roman-36"/>
      <use x="286.279296875" xlink:href="#BitstreamVeraSans-Roman-39"/>
      <use x="349.90234375" xlink:href="#BitstreamVeraSans-Roman-2e"/>
      <use x="381.689453125" xlink:href="#BitstreamVeraSans-Roman-31"/>
      <use x="445.3125" xlink:href="#BitstreamVeraSans-Roman-32"/>
      <use x="508.935546875" xlink:href="#BitstreamVeraSans-Roman-2e"/>
      <use x="540.72265625" xlink:href="#BitstreamVeraSans-Roman-31"/>
      <use x="604.345703125" xlink:href="#BitstreamVeraSans-Roman-30"/>
      <use x="667.96875" xlink:href="#BitstreamVeraSans-Roman-20"/>
     </g>
    </g>
   </g>
  </g>
 </g>
 <defs>
  <clipPath id="p5a67343740">
   <rect height="432.0" width="576.0" x="0.0" y="0.0"/>
  </clipPath>
 </defs>
</svg>
